<svg width="234" height="74" viewBox="0 0 234 74" fill="none" xmlns="http://www.w3.org/2000/svg">
<path opacity="0.2" d="M123.208 18.932C123.208 21.5481 121.097 23.6556 118.477 23.6556C115.856 23.6556 113.745 21.5481 113.745 18.932C113.745 16.3158 115.784 14.2083 118.477 14.2083C121.17 14.281 123.208 16.3885 123.208 18.932ZM103.7 28.4519C103.7 28.888 103.7 29.6147 103.7 29.6147C103.7 29.6147 101.444 26.7078 96.6397 26.7078C88.7055 26.7078 82.5184 32.7396 82.5184 41.0968C82.5184 49.3813 88.6327 55.4858 96.6397 55.4858C101.517 55.4858 103.7 52.5062 103.7 52.5062V53.7416C103.7 54.323 104.137 54.759 104.719 54.759H110.615V27.4345C110.615 27.4345 105.229 27.4345 104.719 27.4345C104.137 27.4345 103.7 27.9432 103.7 28.4519ZM103.7 45.9658C102.608 47.5646 100.425 48.9453 97.8043 48.9453C93.1458 48.9453 89.579 46.0385 89.579 41.0968C89.579 36.1551 93.1458 33.2483 97.8043 33.2483C100.352 33.2483 102.681 34.7017 103.7 36.2278V45.9658ZM114.983 27.4345H121.971V54.759H114.983V27.4345ZM219.364 26.7078C214.56 26.7078 212.303 29.6147 212.303 29.6147V14.281H205.316V54.759C205.316 54.759 210.702 54.759 211.212 54.759C211.794 54.759 212.231 54.2503 212.231 53.7416V52.5062C212.231 52.5062 214.487 55.4858 219.291 55.4858C227.226 55.4858 233.413 49.3813 233.413 41.0968C233.413 32.8122 227.226 26.7078 219.364 26.7078ZM218.2 48.8727C215.506 48.8727 213.395 47.4919 212.303 45.8931V36.1551C213.395 34.7017 215.725 33.1756 218.2 33.1756C222.858 33.1756 226.425 36.0825 226.425 41.0241C226.425 45.9658 222.858 48.8727 218.2 48.8727ZM201.676 38.5533V54.8317H194.688V39.3527C194.688 34.847 193.232 33.0303 189.302 33.0303C187.191 33.0303 185.007 34.1203 183.624 35.7191V54.759H176.636V27.4345H182.168C182.751 27.4345 183.187 27.9432 183.187 28.4519V29.6147C185.226 27.5072 187.919 26.7078 190.612 26.7078C193.669 26.7078 196.217 27.5799 198.255 29.324C200.73 31.3588 201.676 33.975 201.676 38.5533ZM159.676 26.7078C154.872 26.7078 152.615 29.6147 152.615 29.6147V14.281H145.628V54.759C145.628 54.759 151.014 54.759 151.524 54.759C152.106 54.759 152.543 54.2503 152.543 53.7416V52.5062C152.543 52.5062 154.799 55.4858 159.603 55.4858C167.537 55.4858 173.725 49.3813 173.725 41.0968C173.797 32.8122 167.61 26.7078 159.676 26.7078ZM158.511 48.8727C155.818 48.8727 153.707 47.4919 152.615 45.8931V36.1551C153.707 34.7017 156.037 33.1756 158.511 33.1756C163.17 33.1756 166.737 36.0825 166.737 41.0241C166.737 45.9658 163.17 48.8727 158.511 48.8727ZM139.586 26.7078C141.697 26.7078 142.789 27.0712 142.789 27.0712V33.539C142.789 33.539 136.966 31.5768 133.326 35.7191V54.8317H126.338V27.4345C126.338 27.4345 131.725 27.4345 132.234 27.4345C132.816 27.4345 133.253 27.9432 133.253 28.4519V29.6147C134.563 28.0886 137.402 26.7078 139.586 26.7078ZM67.014 52.2882C66.6501 51.4162 66.2861 50.4714 65.9222 49.672C65.3398 48.3639 64.7575 47.1285 64.248 45.9658L64.1752 45.8931C59.1527 34.9924 53.7662 23.9463 48.0885 13.0456L47.8702 12.6095C47.2878 11.5195 46.7055 10.3567 46.1232 9.19398C45.3953 7.88589 44.6674 6.50513 43.5028 5.19704C41.1735 2.29018 37.8251 0.691406 34.2584 0.691406C30.6189 0.691406 27.3433 2.29018 24.9412 5.0517C23.8494 6.35979 23.0487 7.74055 22.3208 9.04864C21.7384 10.2114 21.1561 11.3741 20.5738 12.4642L20.3554 12.9002C14.7506 23.801 9.2913 34.847 4.26877 45.7478L4.19598 45.8931C3.68645 47.0559 3.10412 48.2913 2.5218 49.5994C2.15785 50.3988 1.7939 51.2708 1.42995 52.2155C0.483672 54.9044 0.192511 57.4479 0.556462 60.0641C1.35716 65.5144 4.99667 70.0927 10.0192 72.1275C11.9118 72.9269 13.8771 73.2903 15.9152 73.2903C16.4975 73.2903 17.2254 73.2176 17.8078 73.1449C20.2098 72.8543 22.6847 72.0549 25.0868 70.6741C28.0712 69.0027 30.91 66.6045 34.1128 63.1163C37.3156 66.6045 40.2272 69.0027 43.1388 70.6741C45.5409 72.0549 48.0157 72.8543 50.4178 73.1449C51.0001 73.2176 51.7281 73.2903 52.3104 73.2903C54.3485 73.2903 56.3866 72.9269 58.2064 72.1275C63.3017 70.0927 66.8684 65.4418 67.6691 60.0641C68.2515 57.5206 67.9603 54.9771 67.014 52.2882ZM34.1856 56.0671C30.2549 51.1255 27.7073 46.4745 26.8338 42.5502C26.4698 40.8788 26.397 39.4253 26.6154 38.1173C26.761 36.9545 27.1977 35.9371 27.78 35.0651C29.1631 33.1029 31.4923 31.8675 34.1856 31.8675C36.8788 31.8675 39.2809 33.0302 40.5911 35.0651C41.1735 35.9371 41.6102 36.9545 41.7558 38.1173C41.9742 39.4253 41.9014 40.9514 41.5374 42.5502C40.6639 46.4018 38.1163 51.0528 34.1856 56.0671ZM63.2289 59.4827C62.7194 63.2616 60.1717 66.5318 56.605 67.9853C54.858 68.712 52.9655 68.93 51.0729 68.712C49.2532 68.494 47.4334 67.9126 45.5409 66.8225C42.9204 65.3691 40.3 63.1163 37.2428 59.7734C42.0469 53.887 44.9586 48.5093 46.0504 43.713C46.5599 41.4602 46.6327 39.4253 46.4144 37.5359C46.1232 35.7191 45.4681 34.0477 44.449 32.5942C42.1925 29.324 38.4074 27.4345 34.1856 27.4345C29.9638 27.4345 26.1787 29.3967 23.9222 32.5942C22.9031 34.0477 22.248 35.7191 21.9568 37.5359C21.6657 39.4253 21.7384 41.5328 22.3208 43.713C23.4126 48.5093 26.397 53.9597 31.1284 59.8461C28.144 63.1889 25.4508 65.4418 22.8303 66.8952C20.9378 67.9853 19.118 68.5666 17.2982 68.7847C15.3329 69.0027 13.4403 68.712 11.7662 68.0579C8.19945 66.6045 5.65178 63.3343 5.14225 59.5554C4.92388 57.7386 5.06946 55.9218 5.79737 53.887C6.01574 53.1603 6.37969 52.4336 6.74364 51.5615C7.25317 50.3988 7.83549 49.1633 8.41782 47.9279L8.49061 47.7826C13.5131 36.9545 18.8996 25.9084 24.5045 15.153L24.7229 14.717C25.3052 13.6269 25.8875 12.4642 26.4698 11.3741C27.0521 10.2114 27.7073 9.12131 28.5079 8.17658C30.0365 6.43246 32.0747 5.48773 34.3312 5.48773C36.5877 5.48773 38.6258 6.43246 40.1544 8.17658C40.9551 9.12131 41.6102 10.2114 42.1925 11.3741C42.7748 12.4642 43.3572 13.6269 43.9395 14.717L44.1579 15.153C49.6899 25.9811 55.0764 37.0272 60.0989 47.8552V47.9279C60.6813 49.0907 61.1908 50.3988 61.7731 51.5615C62.1371 52.4336 62.501 53.1603 62.7194 53.887C63.3017 55.7764 63.5201 57.5932 63.2289 59.4827Z" fill="white"/>
</svg>
