<svg width="229" height="70" viewBox="0 0 229 70" fill="none" xmlns="http://www.w3.org/2000/svg">
<g opacity="0.2">
<path d="M56.038 31.1488C45.2211 24.6682 27.3789 24.0723 17.0528 27.234C15.3946 27.7413 13.6411 26.797 13.1387 25.1242C12.6362 23.4505 13.5713 21.6827 15.2307 21.1742C27.0843 17.5439 46.7891 18.2453 59.2417 25.7027C60.7336 26.5957 61.2228 28.5389 60.3385 30.0415C59.4537 31.546 57.5258 32.0419 56.038 31.1488ZM55.6838 40.7474C54.9252 41.9898 53.3151 42.3791 52.0853 41.6167C43.0673 36.0244 29.3158 34.4043 18.6468 37.6714C17.2632 38.0932 15.8019 37.3063 15.3817 35.913C14.9647 34.5172 15.7452 33.0456 17.1263 32.6213C29.3142 28.8902 44.4653 30.6973 54.823 37.1188C56.0528 37.8828 56.4399 39.5081 55.6838 40.7474ZM51.5776 49.9657C50.975 50.9631 49.6871 51.2759 48.7021 50.6679C40.8218 45.8093 30.9033 44.7117 19.2225 47.4036C18.0967 47.664 16.975 46.9521 16.7182 45.8169C16.4604 44.6813 17.163 43.5499 18.2913 43.2907C31.0739 40.3426 42.039 41.6115 50.884 47.0641C51.8702 47.6715 52.1807 48.9714 51.5776 49.9657ZM36.1881 1.13672C17.6553 1.13672 2.63086 16.2931 2.63086 34.9899C2.63086 53.6882 17.6553 68.8442 36.1881 68.8442C54.7216 68.8442 69.7452 53.6882 69.7452 34.9899C69.7452 16.2931 54.7216 1.13672 36.1881 1.13672Z" fill="white"/>
<path d="M93.9283 32.3896C88.1344 30.9957 87.1026 30.0173 87.1026 27.9622C87.1026 26.0197 88.9154 24.7132 91.6106 24.7132C94.2233 24.7132 96.8135 25.7056 99.5299 27.7487C99.6121 27.8106 99.7151 27.8352 99.8164 27.8191C99.9178 27.8037 100.007 27.7479 100.067 27.663L102.896 23.6398C103.012 23.4745 102.98 23.2457 102.824 23.1192C99.5912 20.5024 95.9511 19.2302 91.6964 19.2302C85.4404 19.2302 81.0706 23.0173 81.0706 28.4368C81.0706 34.2481 84.8401 36.3056 91.3541 37.8939C96.8984 39.1823 97.8341 40.2615 97.8341 42.1913C97.8341 44.3293 95.9419 45.6586 92.8969 45.6586C89.5153 45.6586 86.7563 44.5093 83.6704 41.8133C83.5939 41.747 83.4889 41.7163 83.3919 41.7219C83.2902 41.7304 83.1968 41.778 83.1319 41.8568L79.9598 45.6654C79.8268 45.8235 79.8436 46.0595 79.9971 46.1961C83.5879 49.4299 88.0034 51.1382 92.7687 51.1382C99.5099 51.1382 103.866 47.4219 103.866 41.6705C103.866 36.81 100.987 34.1216 93.9283 32.3896Z" fill="white"/>
<path d="M124.011 38.9042C124.011 43.0087 121.505 45.8728 117.917 45.8728C114.369 45.8728 111.693 42.8786 111.693 38.9042C111.693 34.9305 114.369 31.9358 117.917 31.9358C121.447 31.9358 124.011 34.8658 124.011 38.9042ZM119.118 26.6249C116.196 26.6249 113.799 27.786 111.823 30.165V27.4872C111.823 27.2758 111.653 27.1036 111.443 27.1036H106.256C106.046 27.1036 105.876 27.2758 105.876 27.4872V57.2414C105.876 57.4529 106.046 57.625 106.256 57.625H111.443C111.653 57.625 111.823 57.4529 111.823 57.2414V47.8497C113.799 50.0877 116.196 51.1807 119.118 51.1807C124.547 51.1807 130.043 46.9643 130.043 38.9042C130.043 30.8424 124.547 26.6249 119.118 26.6249Z" fill="white"/>
<path d="M144.131 45.9158C140.412 45.9158 137.609 42.9012 137.609 38.9043C137.609 34.8906 140.315 31.9779 144.046 31.9779C147.789 31.9779 150.611 34.9923 150.611 38.9919C150.611 43.0051 147.886 45.9158 144.131 45.9158ZM144.131 26.625C137.139 26.625 131.662 32.0567 131.662 38.9919C131.662 45.8518 137.102 51.2266 144.046 51.2266C151.063 51.2266 156.557 45.8131 156.557 38.9043C156.557 32.0186 151.1 26.625 144.131 26.625Z" fill="white"/>
<path d="M171.489 27.1031H165.78V21.2146C165.78 21.0032 165.611 20.8314 165.401 20.8314H160.214C160.004 20.8314 159.833 21.0032 159.833 21.2146V27.1031H157.339C157.13 27.1031 156.961 27.2753 156.961 27.4867V31.9847C156.961 32.196 157.13 32.3681 157.339 32.3681H159.833V44.0074C159.833 48.7111 162.154 51.0957 166.73 51.0957C168.591 51.0957 170.135 50.708 171.59 49.8757C171.708 49.809 171.782 49.6805 171.782 49.5438V45.2604C171.782 45.128 171.714 45.0036 171.602 44.9341C171.489 44.8626 171.348 44.8589 171.232 44.9167C170.233 45.4239 169.267 45.6581 168.187 45.6581C166.523 45.6581 165.78 44.896 165.78 43.1873V32.3681H171.489C171.698 32.3681 171.867 32.196 171.867 31.9847V27.4867C171.867 27.2753 171.698 27.1031 171.489 27.1031Z" fill="white"/>
<path d="M191.379 27.1264V26.4032C191.379 24.2756 192.188 23.3268 194.001 23.3268C195.083 23.3268 195.952 23.5434 196.924 23.8709C197.044 23.9089 197.169 23.8899 197.267 23.8175C197.367 23.7452 197.423 23.6292 197.423 23.5063V19.0958C197.423 18.9272 197.316 18.7781 197.155 18.7287C196.127 18.4203 194.812 18.1034 192.843 18.1034C188.051 18.1034 185.519 20.8256 185.519 25.973V27.0807H183.026C182.817 27.0807 182.645 27.2525 182.645 27.4639V31.985C182.645 32.1963 182.817 32.3684 183.026 32.3684H185.519V50.3214C185.519 50.5329 185.688 50.7047 185.897 50.7047H191.084C191.294 50.7047 191.465 50.5329 191.465 50.3214V32.3684H196.309L203.729 50.3167C202.886 52.2025 202.058 52.5777 200.927 52.5777C200.013 52.5777 199.051 52.3023 198.067 51.7591C197.974 51.7076 197.865 51.6992 197.764 51.7304C197.665 51.7659 197.582 51.8399 197.54 51.9374L195.782 55.8291C195.698 56.0129 195.769 56.229 195.945 56.3243C197.78 57.3273 199.438 57.7554 201.485 57.7554C205.316 57.7554 207.434 55.9548 209.301 51.1118L218.301 27.6487C218.346 27.5306 218.333 27.3976 218.261 27.2925C218.19 27.189 218.075 27.1264 217.949 27.1264H212.548C212.386 27.1264 212.241 27.2299 212.188 27.3831L206.656 43.3262L200.596 27.3726C200.541 27.2242 200.399 27.1264 200.242 27.1264H191.379Z" fill="white"/>
<path d="M179.848 27.1032H174.66C174.45 27.1032 174.28 27.2754 174.28 27.4869V50.3213C174.28 50.5328 174.45 50.7046 174.66 50.7046H179.848C180.057 50.7046 180.228 50.5328 180.228 50.3213V27.4869C180.228 27.2754 180.057 27.1032 179.848 27.1032Z" fill="white"/>
<path d="M177.28 16.7063C175.225 16.7063 173.557 18.3852 173.557 20.4582C173.557 22.5329 175.225 24.2134 177.28 24.2134C179.335 24.2134 181.001 22.5329 181.001 20.4582C181.001 18.3852 179.335 16.7063 177.28 16.7063Z" fill="white"/>
<path d="M222.942 29.3745H221.992V30.5974H222.942C223.417 30.5974 223.7 30.3632 223.7 29.9857C223.7 29.5879 223.417 29.3745 222.942 29.3745ZM223.559 31.119L224.591 32.5778H223.721L222.791 31.2398H221.992V32.5778H221.263V28.7113H222.972C223.862 28.7113 224.448 29.171 224.448 29.9446C224.448 30.5783 224.085 30.9657 223.559 31.119ZM222.749 27.4249C220.879 27.4249 219.464 28.9243 219.464 30.7611C219.464 32.5968 220.869 34.0764 222.73 34.0764C224.6 34.0764 226.016 32.5778 226.016 30.7402C226.016 28.9045 224.61 27.4249 222.749 27.4249ZM222.73 34.4448C220.677 34.4448 219.079 32.7812 219.079 30.7611C219.079 28.7408 220.698 27.0583 222.749 27.0583C224.802 27.0583 226.4 28.7218 226.4 30.7402C226.4 32.7605 224.783 34.4448 222.73 34.4448Z" fill="white"/>
</g>
</svg>
