<svg width="179" height="67" viewBox="0 0 179 67" fill="none" xmlns="http://www.w3.org/2000/svg">
<g opacity="0.4" clip-path="url(#clip0_452_1658)">
<path d="M177.529 54.9936L177.176 55.985H177.046L176.693 54.9961V55.985H176.466V54.6338H176.748L177.11 55.6377L177.474 54.6338H177.755V55.985H177.529V54.9936ZM176.267 54.8376H175.897V55.985H175.668V54.8376H175.295V54.6338H176.267V54.8376Z" fill="white"/>
<path d="M113.968 10.3862V55.6125H104.794V51C103.834 52.6173 102.456 53.9352 100.776 54.7738C98.9778 55.6723 96.9389 56.1515 94.9008 56.1515C92.3823 56.2115 89.8637 55.4926 87.7652 54.055C85.607 52.6173 83.9277 50.6406 82.8483 48.3044C81.6494 45.6087 81.0496 42.7335 81.1093 39.7982C81.0496 36.8631 81.6494 33.9877 82.8483 31.3521C83.9277 29.0757 85.607 27.099 87.7055 25.7213C89.8638 24.3435 92.3823 23.6845 94.9008 23.7444C96.8792 23.7444 98.8577 24.1637 100.597 25.0623C102.276 25.9009 103.655 27.1588 104.614 28.7164V13.4413L113.968 10.3862ZM102.935 46.687C104.134 45.1295 104.794 42.8533 104.794 39.9181C104.794 36.9828 104.195 34.7665 102.935 33.209C101.676 31.6515 99.6969 30.753 97.6588 30.8129C95.62 30.6931 93.6416 31.5916 92.3219 33.1491C91.0633 34.7066 90.4031 36.923 90.4031 39.7982C90.4031 42.7335 91.0633 45.0098 92.3219 46.6271C93.5811 48.2445 95.62 49.143 97.6588 49.0831C99.9371 49.0831 101.736 48.2445 102.935 46.687Z" fill="white"/>
<path d="M146.767 25.6613C148.925 27.0391 150.604 29.0159 151.623 31.2922C152.822 33.9279 153.422 36.8031 153.362 39.7384C153.422 42.6736 152.822 45.6088 151.623 48.2445C150.544 50.5806 148.865 52.5575 146.706 53.9951C144.608 55.3729 142.089 56.0917 139.571 56.0318C137.532 56.0917 135.494 55.6125 133.695 54.654C132.016 53.8154 130.637 52.4975 129.737 50.8802V55.5526H120.504V13.4413L129.798 10.3862V28.8361C130.697 27.2188 132.076 25.9009 133.755 25.0623C135.554 24.1039 137.532 23.6247 139.571 23.6845C142.089 23.6247 144.608 24.3435 146.767 25.6613ZM142.209 46.6271C143.468 45.0098 144.068 42.7335 144.068 39.7384C144.068 36.8631 143.468 34.6466 142.209 33.0892C140.95 31.5318 139.211 30.753 136.933 30.753C134.894 30.6332 132.915 31.5318 131.596 33.1491C130.337 34.7665 129.737 36.9828 129.737 39.8582C129.737 42.7934 130.337 45.0697 131.596 46.6271C132.856 48.2445 134.834 49.143 136.933 49.0232C138.971 49.143 140.95 48.2445 142.209 46.6271Z" fill="white"/>
<path d="M166.193 31.412V43.5122C166.193 45.2494 166.673 46.5074 167.513 47.2861C168.472 48.1248 169.731 48.5441 171.051 48.4841C172.07 48.4841 173.149 48.3045 174.109 48.0648V55.2531C172.37 55.8522 170.571 56.1516 168.772 56.0918C164.935 56.0918 161.996 55.0135 159.958 52.857C157.919 50.7006 156.9 47.6455 156.9 43.692V17.1553L166.193 14.1602V24.4634H174.109V31.412H166.193Z" fill="white"/>
<path d="M63.9014 2.89857C65.4603 4.39613 66.4797 6.3729 66.7195 8.52937C66.7195 9.4279 66.4797 10.027 65.94 11.1651C65.4004 12.3032 58.7448 23.8045 56.7661 26.9793C55.6269 28.8362 55.0273 31.0527 55.0273 33.2091C55.0273 35.4255 55.6269 37.582 56.7661 39.439C58.7448 42.6137 65.4004 54.1748 65.94 55.3131C66.4797 56.4512 66.7195 56.9903 66.7195 57.8888C66.4797 60.0453 65.5203 62.0221 63.9613 63.4598C62.4623 65.0172 60.4837 66.0355 58.3851 66.2152C57.4857 66.2152 56.886 65.9756 55.8068 65.4365C54.7274 64.8973 42.9753 58.4279 39.7974 56.4512C39.5575 56.3313 39.3177 56.1517 39.0179 56.0318L23.3083 46.747C23.6681 49.7421 24.9872 52.6174 27.1458 54.714C27.5655 55.1333 27.9852 55.4927 28.4649 55.8521C28.1051 56.0318 27.6854 56.2116 27.3257 56.4512C24.1478 58.4279 12.5755 65.0771 11.4363 65.6162C10.297 66.1553 9.75735 66.3949 8.79798 66.3949C6.63942 66.1553 4.66074 65.1969 3.22169 63.6394C1.66273 62.1418 0.643405 60.1651 0.403564 58.0086C0.463525 57.1101 0.703366 56.2116 1.18305 55.4328C1.72269 54.2947 8.37828 42.7335 10.3569 39.5587C11.4962 37.7018 12.0958 35.5453 12.0958 33.3289C12.0958 31.1125 11.4962 28.956 10.3569 27.099C8.37828 23.8045 1.66273 12.2433 1.18305 11.1052C0.703366 10.3264 0.463525 9.4279 0.403564 8.52937C0.643405 6.3729 1.60277 4.39613 3.16173 2.89857C4.66074 1.34111 6.63942 0.382675 8.79798 0.143066C9.69737 0.202969 10.5968 0.442578 11.4363 0.921798C12.3956 1.34111 20.8499 6.25309 25.347 8.88883L26.3663 9.48782C26.7261 9.72743 27.0259 9.90712 27.2657 10.027L27.7454 10.3264L43.7547 19.791C43.395 16.1968 41.5362 12.9022 38.6581 10.6859C39.0179 10.5062 39.4376 10.3264 39.7974 10.0868C42.9753 8.11007 54.5476 1.40101 55.6868 0.921798C56.4663 0.442578 57.3657 0.202969 58.3251 0.143066C60.4237 0.382675 62.4024 1.34111 63.9014 2.89857ZM34.4009 37.5221L37.8187 34.1076C38.2984 33.6284 38.2984 32.9096 37.8187 32.4304L34.4009 29.0159C33.9213 28.5367 33.2018 28.5367 32.7221 29.0159L29.3043 32.4304C28.8247 32.9096 28.8247 33.6284 29.3043 34.1076L32.7221 37.5221C33.1418 37.9414 33.9213 37.9414 34.4009 37.5221Z" fill="white"/>
</g>
<defs>
<clipPath id="clip0_452_1658">
<rect width="178.316" height="66.2519" fill="white" transform="translate(0.403564 0.143066)"/>
</clipPath>
</defs>
</svg>
