<svg width="89" height="68" viewBox="0 0 89 68" fill="none" xmlns="http://www.w3.org/2000/svg">
<g opacity="0.4" clip-path="url(#clip0_452_1603)">
<path fill-rule="evenodd" clip-rule="evenodd" d="M44.3436 58.6082C20.3068 58.6082 0.820953 45.5693 0.820953 29.4851C0.820953 13.4007 20.3068 0.361816 44.3436 0.361816C68.3805 0.361816 87.8662 13.4007 87.8662 29.4851C87.8662 45.5693 68.3805 58.6082 44.3436 58.6082ZM51.0055 11.748C32.7354 11.748 17.9245 20.6619 17.9245 31.6578C17.9245 42.6537 32.7354 51.5677 51.0055 51.5677C69.2755 51.5677 82.7585 45.4734 82.7585 31.6578C82.7585 17.8466 69.2755 11.748 51.0055 11.748Z" fill="white"/>
<path fill-rule="evenodd" clip-rule="evenodd" d="M67.1036 45.4694C67.1036 45.4694 69.7378 46.2636 71.2682 47.0373C71.7993 47.3058 72.718 47.8415 73.3807 48.5449C74.0299 49.2338 74.3464 49.9319 74.3464 49.9319L84.7277 67.4202L67.9486 67.4277L60.1023 52.7059C60.1023 52.7059 58.4956 49.9477 57.507 49.148C56.6823 48.4809 56.3306 48.2434 55.5152 48.2434C54.9476 48.2434 51.5286 48.2434 51.5286 48.2434L51.5317 67.417L36.684 67.4233V18.4456H66.5001C66.5001 18.4456 80.0803 18.6903 80.0803 31.5994C80.0803 44.5085 67.1036 45.4694 67.1036 45.4694ZM60.6455 29.0695L51.6569 29.0637L51.6524 37.3917L60.6455 37.3888C60.6455 37.3888 64.8101 37.3759 64.8101 33.1525C64.8101 28.8441 60.6455 29.0695 60.6455 29.0695Z" fill="white"/>
</g>
<defs>
<clipPath id="clip0_452_1603">
<rect width="87.3961" height="67.6615" fill="white" transform="translate(0.711548)"/>
</clipPath>
</defs>
</svg>
