<svg width="168" height="65" viewBox="0 0 168 65" fill="none" xmlns="http://www.w3.org/2000/svg">
<g opacity="0.4" clip-path="url(#clip0_452_1715)">
<g filter="url(#filter0_f_452_1715)">
<path d="M48.5162 25.2369C49.2912 25.0607 50.0485 24.9374 50.7882 24.8669C51.5631 24.7965 52.3028 24.7612 53.0073 24.7612C53.6766 24.7612 54.3987 24.7965 55.1736 24.8669C55.9485 24.9374 56.7058 25.0607 57.4455 25.2369V52.5082C56.5297 52.6492 55.702 52.7549 54.9622 52.8254C54.2225 52.8958 53.5533 52.9311 52.9545 52.9311C52.3557 52.9311 51.6864 52.8958 50.9467 52.8254C50.207 52.7549 49.3968 52.6492 48.5162 52.5082V25.2369Z" fill="white"/>
<path d="M63.3764 26.5583C64.6092 26.1355 66.0887 25.7303 67.8146 25.3427C69.5406 24.9199 71.7245 24.7085 74.3663 24.7085C75.8105 24.7085 77.2371 24.8318 78.646 25.0785C80.055 25.2899 81.3583 25.7479 82.5559 26.4526C83.4718 25.9945 84.5461 25.5894 85.7789 25.237C87.0118 24.8847 88.4031 24.7085 89.953 24.7085C91.3267 24.7085 92.7357 24.8494 94.1799 25.1313C95.6593 25.3779 96.9802 25.9241 98.1426 26.7697C99.3402 27.6153 100.309 28.8309 101.049 30.4165C101.824 32.002 102.211 34.0984 102.211 36.7058V52.5084C101.295 52.6845 100.467 52.7902 99.7277 52.8255C98.988 52.8959 98.3363 52.9312 97.7727 52.9312C97.1739 52.9312 96.5047 52.8959 95.765 52.8255C95.0253 52.7902 94.1975 52.6845 93.2817 52.5084V37.6571C93.2817 35.7897 92.9646 34.4508 92.3306 33.6404C91.6966 32.83 90.6575 32.4248 89.2133 32.4248C88.7201 32.4248 88.227 32.4777 87.7339 32.5834C87.276 32.6891 86.9589 32.7772 86.7828 32.8476C87.0998 34.0808 87.2583 35.4902 87.2583 37.0757V52.5084C86.3425 52.6845 85.5147 52.7902 84.775 52.8255C84.0353 52.8959 83.3837 52.9312 82.8201 52.9312C82.2213 52.9312 81.552 52.8959 80.8123 52.8255C80.0726 52.7902 79.2449 52.6845 78.329 52.5084V37.6571C78.329 35.7897 78.0296 34.4508 77.4308 33.6404C76.832 32.83 75.8105 32.4248 74.3663 32.4248C73.9789 32.4248 73.5562 32.46 73.0983 32.5305C72.6756 32.601 72.4114 32.6714 72.3057 32.7419V52.5084C71.3899 52.6845 70.5621 52.7902 69.8224 52.8255C69.0827 52.8959 68.4311 52.9312 67.8675 52.9312C67.2687 52.9312 66.5994 52.8959 65.8597 52.8255C65.12 52.7902 64.2922 52.6845 63.3764 52.5084V26.5583Z" fill="white"/>
</g>
<g filter="url(#filter1_f_452_1715)">
<path d="M24.8049 1.55835C22.1278 1.55835 19.7158 1.91178 17.5554 2.61641C15.3949 3.27417 13.5327 4.28202 11.9828 5.64436C10.4799 6.95982 9.31094 8.58706 8.46556 10.5132C7.62018 12.4393 7.19281 14.6469 7.19282 17.1368C7.19282 19.1569 7.45876 20.9152 7.97538 22.4185C8.53896 23.9219 9.311 25.2612 10.2973 26.4357C11.2836 27.5632 12.4525 28.5492 13.8145 29.3948C15.2235 30.2405 16.7762 30.9691 18.4669 31.5798L22.4142 33.0593C23.0247 33.2942 23.6135 33.5517 24.1771 33.8335C24.7876 34.0684 25.3241 34.3781 25.7938 34.7539C26.2635 35.1298 26.6386 35.601 26.9204 36.1647C27.2021 36.6815 27.3417 37.3141 27.3418 38.0658C27.3418 39.851 26.6656 41.1162 25.3036 41.8679C23.9886 42.5726 22.1349 42.926 19.7397 42.926C16.546 42.926 12.7864 41.9836 8.46556 40.1045C5.00249 43.1108 3.77689 45.4515 2.69521 48.6722C1.61352 51.8929 1.71148 52.4312 2.42862 53.7388C2.83715 54.148 4.27754 55.0378 4.27754 55.0378C4.27754 55.0378 5.71601 55.929 6.26406 56.113C8.22552 56.1394 10.8324 52.3371 11.785 52.8614C12.2396 53.0184 12.645 53.1446 12.9718 53.2141C13.4949 53.3231 14.0386 53.4228 14.5971 53.5066C15.3634 53.795 16.747 58.7482 17.2372 58.8915C17.7921 59.0537 19.4903 59.0635 19.4903 59.0635C19.4903 59.0635 21.1779 59.1062 21.7434 58.9861C22.228 58.8832 23.6539 54.0806 24.6329 53.7044C25.7214 53.5816 26.7569 53.4021 27.7373 53.1711C28.6461 53.1319 32.1949 56.6374 32.6649 56.5087C33.2225 56.356 34.703 55.5453 34.703 55.5453C34.703 55.5453 36.1898 54.7436 36.6208 54.3582C36.9788 54.0381 36.0596 49.4205 36.4918 48.4743C37.0174 47.9264 37.4877 47.3476 37.9107 46.7367C38.6061 46.1548 43.3358 45.9852 43.5607 45.5754C43.8389 45.0685 44.2916 43.4421 44.2916 43.4421C44.2916 43.4421 44.7416 41.8091 44.7646 41.2313C44.7829 40.771 40.9327 38.3137 40.5852 37.369C40.5779 36.4362 40.5132 35.5675 40.4046 34.7539C40.5375 33.7866 43.7726 30.167 43.6295 29.6959C43.4614 29.1426 42.6061 27.683 42.6061 27.683C42.6061 27.683 41.7649 26.2194 41.3678 25.7991C41.0307 25.4425 36.1686 26.5814 35.391 26.0916C34.6576 25.5416 33.8577 25.0409 32.9831 24.6034C31.4332 23.7578 29.6669 22.9333 27.6943 22.1346L24.3147 20.8013C23.0936 20.3315 22.0337 19.7644 21.1414 19.1067C20.2491 18.449 19.8085 17.4412 19.8085 16.0787C19.8085 15.2801 19.9699 14.6257 20.2987 14.1088C20.6274 13.5451 21.0548 13.1176 21.5714 12.8357C22.135 12.5069 22.7456 12.2713 23.4031 12.1304C24.1076 11.9895 24.836 11.924 25.5874 11.9239C28.0296 11.9239 30.0331 11.8672 31.0022 12.5686C31.8714 13.1976 35.3444 15.0615 37.7559 15.1927C39.4035 15.2823 41.3348 15.0412 42.5373 13.911C44.7915 11.7925 42.3964 7.44611 36.9733 3.88953C34.6759 2.38283 33.5096 2.62977 31.7104 2.26372C29.443 1.80244 27.2001 1.5584 24.8049 1.55835ZM36.0876 6.00565C37.1693 6.00565 38.0483 6.8849 38.0483 7.96693C38.0483 9.04896 37.1693 9.91961 36.0876 9.91961C35.0059 9.91961 34.1355 9.04896 34.1355 7.96693C34.1355 6.8849 35.0059 6.00565 36.0876 6.00565Z" fill="white"/>
</g>
<g filter="url(#filter2_f_452_1715)">
<path d="M117.034 32.5305C117.21 32.6009 117.509 32.6538 117.932 32.689C118.355 32.7243 118.795 32.7419 119.253 32.7419C120.767 32.7419 122 32.3014 122.951 31.4206C123.902 30.5397 124.378 29.2008 124.378 27.4039C124.378 26.3469 124.219 25.466 123.902 24.7613C123.621 24.0214 123.215 23.44 122.687 23.0172C122.159 22.5592 121.542 22.2421 120.838 22.0659C120.133 21.8897 119.394 21.8016 118.619 21.8016C118.407 21.8016 118.161 21.8016 117.879 21.8016C117.597 21.8016 117.315 21.8192 117.034 21.8545V32.5305ZM107.893 14.6667C108.703 14.561 109.936 14.42 111.592 14.2439C113.282 14.0325 115.396 13.9268 117.932 13.9268C119.799 13.9268 121.683 14.1029 123.585 14.4553C125.487 14.8076 127.196 15.4771 128.71 16.4636C130.26 17.415 131.511 18.7715 132.462 20.5332C133.413 22.2949 133.888 24.5851 133.888 27.4039C133.888 29.9055 133.501 31.9843 132.726 33.6403C131.986 35.2964 130.982 36.6177 129.714 37.6042C128.481 38.5908 127.055 39.2955 125.435 39.7183C123.85 40.1411 122.212 40.3525 120.521 40.3525C119.852 40.3525 119.165 40.3349 118.46 40.2996C117.791 40.2292 117.315 40.1587 117.034 40.0882V52.4026C116.118 52.5788 115.29 52.7021 114.55 52.7726C113.811 52.843 113.124 52.8783 112.49 52.8783C111.257 52.8783 109.725 52.7197 107.893 52.4026V14.6667Z" fill="white"/>
<path d="M146.09 42.942L135.946 25.2368C136.333 25.1663 137.002 25.0959 137.953 25.0254C138.94 24.9549 140.014 24.9197 141.176 24.9197C142.092 24.9197 142.991 24.9549 143.871 25.0254C144.752 25.0959 145.333 25.1663 145.615 25.2368L150.793 35.6485L155.971 25.2368C156.252 25.1663 156.781 25.0959 157.556 25.0254C158.366 24.9549 159.229 24.9197 160.145 24.9197C161.307 24.9197 162.346 24.9549 163.262 25.0254C164.178 25.0959 164.829 25.1663 165.217 25.2368L155.02 42.942V52.5081C154.104 52.6491 153.276 52.7548 152.536 52.8253C151.797 52.8957 151.127 52.931 150.528 52.931C149.93 52.931 149.26 52.8957 148.521 52.8253C147.781 52.7548 146.971 52.6491 146.09 52.5081V42.942Z" fill="white"/>
</g>
</g>
<defs>
<filter id="filter0_f_452_1715" x="47.5101" y="23.7023" width="55.7071" height="30.235" filterUnits="userSpaceOnUse" color-interpolation-filters="sRGB">
<feFlood flood-opacity="0" result="BackgroundImageFix"/>
<feBlend mode="normal" in="SourceGraphic" in2="BackgroundImageFix" result="shape"/>
<feGaussianBlur stdDeviation="0.503084" result="effect1_foregroundBlur_452_1715"/>
</filter>
<filter id="filter1_f_452_1715" x="0.879696" y="0.552182" width="44.8911" height="59.5248" filterUnits="userSpaceOnUse" color-interpolation-filters="sRGB">
<feFlood flood-opacity="0" result="BackgroundImageFix"/>
<feBlend mode="normal" in="SourceGraphic" in2="BackgroundImageFix" result="shape"/>
<feGaussianBlur stdDeviation="0.503084" result="effect1_foregroundBlur_452_1715"/>
</filter>
<filter id="filter2_f_452_1715" x="106.887" y="12.9206" width="59.3362" height="41.0165" filterUnits="userSpaceOnUse" color-interpolation-filters="sRGB">
<feFlood flood-opacity="0" result="BackgroundImageFix"/>
<feBlend mode="normal" in="SourceGraphic" in2="BackgroundImageFix" result="shape"/>
<feGaussianBlur stdDeviation="0.503084" result="effect1_foregroundBlur_452_1715"/>
</filter>
<clipPath id="clip0_452_1715">
<rect width="167.039" height="64.1374" fill="white" transform="translate(0.426514 0.761963)"/>
</clipPath>
</defs>
</svg>
