<svg width="302" height="70" viewBox="0 0 302 70" fill="none" xmlns="http://www.w3.org/2000/svg">
<g opacity="0.4" clip-path="url(#clip0_452_1650)">
<path fill-rule="evenodd" clip-rule="evenodd" d="M297.588 21.0648H296.792V22.0479H297.588C297.954 22.0479 298.196 21.8857 298.196 21.5563C298.196 21.227 297.973 21.0648 297.588 21.0648ZM295.813 20.1652H297.603C298.592 20.1652 299.234 20.6961 299.234 21.5219C299.238 21.7521 299.18 21.9789 299.066 22.1793C298.952 22.3797 298.787 22.5464 298.587 22.6624L299.289 23.675V23.8765H298.27L297.588 22.8934H296.792V23.8765H295.803L295.813 20.1652ZM300.822 22.0921C300.822 20.1259 299.492 18.6021 297.454 18.6021C295.417 18.6021 294.126 20.0325 294.126 22.0921C294.126 24.0584 295.457 25.5871 297.454 25.5871C299.452 25.5871 300.822 24.0781 300.822 22.0921ZM301.657 22.0921C301.657 24.432 300.085 26.3786 297.454 26.3786C294.824 26.3786 293.296 24.4123 293.296 22.0921C293.296 19.772 294.848 17.8107 297.454 17.8107C300.06 17.8107 301.638 19.7572 301.638 22.0921H301.657ZM66.3158 30.4044L58.2111 35.0644L66.3158 39.7097C67.2994 40.2729 68.0176 41.2014 68.3125 42.2911C68.6074 43.3807 68.4548 44.5422 67.8882 45.5199C67.3217 46.4977 66.3876 47.2117 65.2915 47.5049C64.1954 47.798 63.027 47.6463 62.0434 47.0831L47.5302 38.7266C46.5984 38.1923 45.9055 37.326 45.5918 36.3032C45.4512 35.8566 45.3877 35.3896 45.4039 34.9219C45.4113 34.5893 45.4611 34.2589 45.5522 33.9388C45.8516 32.8657 46.5615 31.9518 47.5302 31.3925L62.0434 23.0654C63.027 22.5022 64.1954 22.3505 65.2915 22.6437C66.3876 22.9368 67.3217 23.6508 67.8882 24.6286C68.4548 25.6064 68.6074 26.7678 68.3125 27.8575C68.0176 28.9471 67.2994 29.8757 66.3158 30.4389V30.4044ZM58.6413 52.9818L44.133 44.6646C43.3862 44.2307 42.5226 44.0367 41.6606 44.1092C40.5854 44.1874 39.5797 44.6673 38.8459 45.4525C38.112 46.2376 37.7043 47.2698 37.7047 48.3415V64.9956C37.7047 66.122 38.1548 67.2022 38.956 67.9987C39.7573 68.7952 40.844 69.2427 41.9771 69.2427C43.1102 69.2427 44.1969 68.7952 44.9981 67.9987C45.7993 67.2022 46.2494 66.122 46.2494 64.9956V55.6559L54.3937 60.3552C54.8807 60.6338 55.4181 60.8142 55.9753 60.8863C56.5325 60.9584 57.0985 60.9207 57.641 60.7753C58.1835 60.6299 58.6919 60.3797 59.1372 60.039C59.5824 59.6983 59.9558 59.2738 60.236 58.7896C60.5162 58.3055 60.6978 57.7712 60.7703 57.2173C60.8428 56.6634 60.8048 56.1008 60.6586 55.5615C60.5123 55.0222 60.2606 54.5168 59.9179 54.0742C59.5752 53.6316 59.1481 53.2604 58.6611 52.9818H58.6413ZM41.898 36.6915L35.8652 42.6591C35.6596 42.8521 35.3912 42.9655 35.1086 42.9786H33.3384C33.055 42.9629 32.7858 42.85 32.5769 42.6591L26.549 36.6915C26.363 36.4847 26.2532 36.2213 26.2375 35.9443V34.1796C26.2514 33.8993 26.3613 33.6322 26.549 33.4226L32.5769 27.4207C32.7863 27.2312 33.0555 27.12 33.3384 27.1061H35.1086C35.3904 27.1182 35.6586 27.2298 35.8652 27.4207L41.898 33.4079C42.0857 33.6175 42.1956 33.8846 42.2095 34.1649V35.9296C42.1972 36.2117 42.0871 36.4809 41.898 36.6915ZM37.0866 35.03C37.0672 34.7486 36.9561 34.4811 36.7701 34.2681L35.0097 32.5427C34.8033 32.3547 34.5377 32.2435 34.2581 32.2281H34.1889C33.9093 32.2435 33.6437 32.3547 33.4373 32.5427L31.6917 34.2681C31.5033 34.4792 31.3933 34.7481 31.3802 35.03V35.0939C31.3926 35.3716 31.5029 35.6361 31.6917 35.8411L33.4373 37.5763C33.6444 37.7634 33.9096 37.8744 34.1889 37.8909H34.2581C34.5377 37.8755 34.8033 37.7644 35.0097 37.5763L36.7602 35.8411C36.9503 35.6355 37.0653 35.3724 37.0866 35.0939V35.03ZM9.80568 17.1274L24.3189 25.4544C24.9699 25.8275 25.7081 26.0239 26.4595 26.024C27.211 26.0241 27.9492 25.8278 28.6003 25.4549C29.2514 25.082 29.7925 24.5455 30.1693 23.8993C30.5461 23.253 30.7454 22.5196 30.7472 21.7726V5.11855C30.7472 3.99216 30.2971 2.91189 29.4959 2.11541C28.6947 1.31893 27.608 0.871469 26.4749 0.871469C25.3418 0.871469 24.2551 1.31893 23.4538 2.11541C22.6526 2.91189 22.2025 3.99216 22.2025 5.11855V14.4582L14.0731 9.77363C13.5861 9.49509 13.0486 9.31463 12.4915 9.24257C11.9343 9.1705 11.3683 9.20823 10.8257 9.35361C9.73009 9.64722 8.79663 10.3615 8.23074 11.3393C7.66484 12.317 7.51286 13.4782 7.80821 14.5674C8.10357 15.6566 8.82208 16.5845 9.80568 17.147V17.1274ZM41.6606 26.0099C42.5225 26.0798 43.3852 25.886 44.133 25.4544L58.6413 17.1274C59.1283 16.8488 59.5554 16.4777 59.8981 16.035C60.2409 15.5924 60.4925 15.087 60.6388 14.5477C60.785 14.0084 60.823 13.4458 60.7505 12.8919C60.678 12.338 60.4965 11.8037 60.2163 11.3196C59.9361 10.8354 59.5627 10.4109 59.1174 10.0702C58.6722 9.72951 58.1638 9.47933 57.6213 9.33395C57.0787 9.18857 56.5127 9.15083 55.9555 9.2229C55.3984 9.29497 54.8609 9.47543 54.3739 9.75397L46.2494 14.4385V5.09889C46.2494 3.9725 45.7993 2.89223 44.9981 2.09575C44.1969 1.29927 43.1102 0.851807 41.9771 0.851807C40.844 0.851807 39.7573 1.29927 38.956 2.09575C38.1548 2.89223 37.7047 3.9725 37.7047 5.09889V21.7726C37.7042 22.8449 38.1118 23.8776 38.8455 24.6636C39.5793 25.4495 40.5849 25.9305 41.6606 26.0099ZM26.7963 44.1337C25.9343 44.0612 25.0707 44.2552 24.3238 44.6892L9.80568 52.9818C9.31865 53.2604 8.89158 53.6316 8.54886 54.0742C8.20613 54.5168 7.95446 55.0222 7.80821 55.5615C7.66197 56.1008 7.62401 56.6634 7.69651 57.2173C7.769 57.7712 7.95053 58.3055 8.23074 58.7896C8.51094 59.2738 8.88433 59.6983 9.32958 60.039C9.77483 60.3797 10.2832 60.6299 10.8257 60.7753C11.3683 60.9207 11.9343 60.9584 12.4915 60.8863C13.0486 60.8142 13.5861 60.6338 14.0731 60.3552L22.2025 55.6952V65.0349C22.2025 66.1613 22.6526 67.2416 23.4538 68.038C24.2551 68.8345 25.3418 69.282 26.4749 69.282C27.608 69.282 28.6947 68.8345 29.4959 68.038C30.2971 67.2416 30.7472 66.1613 30.7472 65.0349V48.3415C30.7415 47.2748 30.3317 46.2494 29.5995 45.4696C28.8673 44.6898 27.8664 44.2128 26.7963 44.1337ZM22.8404 36.3327C22.9825 35.8863 23.0477 35.4193 23.0332 34.9514C23.0195 34.619 22.9681 34.2892 22.8799 33.9683C22.5859 32.8926 21.8746 31.9768 20.902 31.422L6.42833 23.0507C5.44473 22.4875 4.27636 22.3358 3.18024 22.6289C2.08411 22.9221 1.15003 23.6361 0.583481 24.6139C0.0169291 25.5916 -0.135686 26.7531 0.15921 27.8427C0.454105 28.9324 1.17236 29.8609 2.15595 30.4241L10.2606 35.0841L2.13617 39.7097C1.15258 40.2755 0.435368 41.2065 0.142327 42.298C-0.150714 43.3895 0.00441658 44.552 0.573592 45.5298C1.14277 46.5075 2.07936 47.2205 3.17734 47.5118C4.27532 47.8031 5.44473 47.6489 6.42833 47.0831L20.9119 38.7266C21.8478 38.1969 22.5447 37.3317 22.8602 36.3081L22.8404 36.3327ZM202.834 11.4449H202.127C201.121 11.4263 200.12 11.569 199.16 11.8677C198.22 12.1615 197.378 12.7055 196.727 13.4407C196.063 14.2113 195.594 15.128 195.357 16.1148C195.08 17.2607 194.948 18.4363 194.962 19.6147V22.161H192.138C191.679 22.1596 191.237 22.3374 190.908 22.6564C190.578 22.9753 190.388 23.4099 190.378 23.8667C190.367 24.351 190.544 24.821 190.872 25.1791C191.208 25.52 191.659 25.725 192.138 25.7543H194.942V46.5178C194.943 46.7515 194.991 46.9826 195.083 47.1978C195.174 47.413 195.308 47.6079 195.476 47.7713C195.827 48.093 196.289 48.2689 196.767 48.2628C197.231 48.2564 197.674 48.0678 197.999 47.7382C198.324 47.4086 198.505 46.9646 198.502 46.5031V25.7543H201.538C202.014 25.73 202.464 25.5302 202.799 25.1939C203.143 24.8503 203.335 24.3853 203.333 23.9011V23.8323C203.321 23.3746 203.127 22.9403 202.795 22.6231C202.463 22.3058 202.019 22.1311 201.558 22.1364H198.502V19.5999C198.496 18.7336 198.599 17.87 198.809 17.0291C198.91 16.5778 199.111 16.1547 199.397 15.7903C199.637 15.5423 199.937 15.3595 200.268 15.2595C200.849 15.0942 201.453 15.0196 202.058 15.0383H202.152H202.29H202.453H202.854C203.093 15.0383 203.329 14.9915 203.55 14.9006C203.771 14.8096 203.972 14.6764 204.141 14.5084C204.309 14.3404 204.444 14.141 204.535 13.9216C204.626 13.7021 204.674 13.4669 204.674 13.2293C204.674 12.9918 204.626 12.7565 204.535 12.5371C204.444 12.3176 204.309 12.1182 204.141 11.9502C203.972 11.7822 203.771 11.649 203.55 11.5581C203.329 11.4672 203.093 11.4204 202.854 11.4204L202.834 11.4449ZM265.436 24.8793C265.608 24.7128 265.745 24.5141 265.839 24.2948C265.933 24.0754 265.983 23.8397 265.985 23.6012C265.984 23.3687 265.934 23.139 265.838 22.9266C265.743 22.7142 265.604 22.5238 265.431 22.3674C265.27 22.1994 265.075 22.0656 264.86 21.9743C264.645 21.8829 264.414 21.8358 264.18 21.8358C263.946 21.8358 263.715 21.8829 263.5 21.9743C263.285 22.0656 263.091 22.1994 262.929 22.3674L248.97 35.8706V13.1162C248.967 12.8793 248.916 12.6454 248.822 12.4277C248.728 12.2101 248.592 12.013 248.421 11.8478C248.25 11.6825 248.048 11.5523 247.827 11.4647C247.605 11.377 247.369 11.3335 247.13 11.3368C246.896 11.3382 246.665 11.3853 246.45 11.4756C246.234 11.5658 246.039 11.6974 245.874 11.8628C245.54 12.196 245.35 12.6458 245.345 13.1162V46.4244C245.35 46.8935 245.54 47.3419 245.874 47.6735C246.207 48.0052 246.658 48.1938 247.13 48.1989C247.611 48.2055 248.074 48.0224 248.419 47.6897C248.764 47.3571 248.962 46.902 248.97 46.4244V40.9288L253.524 36.4113L262.801 47.5353C262.958 47.7698 263.182 47.9528 263.443 48.0613C263.687 48.1511 263.945 48.1976 264.205 48.1989C264.626 48.2066 265.037 48.0733 265.372 47.8204H265.397C265.579 47.6471 265.725 47.4389 265.826 47.2084C265.926 46.9779 265.978 46.7296 265.98 46.4785C265.977 46.0462 265.821 45.6287 265.54 45.2987L256.095 33.8896L265.441 24.899L265.436 24.8793ZM240.217 22.5886C240.387 22.7547 240.522 22.9528 240.614 23.1715C240.706 23.3902 240.752 23.6249 240.751 23.8618V46.4244C240.747 46.8939 240.558 47.343 240.224 47.6749C239.89 48.0069 239.438 48.1951 238.966 48.1989C238.493 48.1938 238.041 48.005 237.705 47.673C237.538 47.5099 237.406 47.3156 237.315 47.1013C237.224 46.887 237.177 46.657 237.176 46.4244V44.2222C236.062 45.464 234.699 46.4595 233.173 47.1445C231.648 47.8295 229.995 48.1887 228.322 48.1989C226.648 48.2091 224.991 47.87 223.458 47.2037C221.924 46.5373 220.548 45.5584 219.419 44.3304C217.086 41.8283 215.79 38.5425 215.79 35.1308C215.79 31.7191 217.086 28.4333 219.419 25.9312C220.55 24.7095 221.925 23.7354 223.456 23.071C224.987 22.4065 226.64 22.0662 228.311 22.0717C229.981 22.0773 231.632 22.4285 233.158 23.1032C234.685 23.7778 236.053 24.761 237.176 25.9902V23.8372C237.176 23.6 237.224 23.3651 237.316 23.1465C237.409 22.9279 237.545 22.7298 237.715 22.564C238.054 22.2482 238.502 22.0724 238.966 22.0724C239.431 22.0724 239.878 22.2482 240.217 22.564V22.5886ZM237.176 35.1578C237.195 32.6433 236.253 30.2155 234.541 28.3645C233.752 27.4891 232.787 26.7889 231.708 26.3095C230.629 25.8301 229.46 25.5823 228.278 25.5823C227.096 25.5823 225.927 25.8301 224.848 26.3095C223.769 26.7889 222.804 27.4891 222.015 28.3645C220.299 30.2138 219.351 32.6415 219.365 35.1578C219.358 37.6572 220.309 40.0652 222.025 41.8922C222.821 42.757 223.789 43.4476 224.868 43.92C225.947 44.3925 227.114 44.6365 228.293 44.6365C229.472 44.6365 230.638 44.3925 231.717 43.92C232.796 43.4476 233.764 42.757 234.56 41.8922C236.27 40.0533 237.212 37.6371 237.196 35.1333L237.176 35.1578ZM93.3593 34.4991C91.8233 33.8369 90.2498 33.2641 88.6469 32.7836C87.2418 32.3855 85.8656 31.8928 84.5278 31.3089C84.0539 31.079 83.6304 30.7583 83.2816 30.3651C82.9998 30.0386 82.8485 29.6205 82.8564 29.1903C82.8443 28.6035 83.0172 28.0277 83.3509 27.5436C83.9218 26.8086 84.6947 26.2537 85.5761 25.946C86.3817 25.6227 87.2393 25.4462 88.1078 25.4249C89.6516 25.3988 91.1607 25.881 92.4 26.7964C92.8945 27.1454 93.3 27.5042 93.6857 27.7795C93.8706 27.9336 94.0731 28.0655 94.2889 28.1728C94.5065 28.2898 94.7488 28.3538 94.9961 28.3595C95.1659 28.3601 95.334 28.3266 95.4906 28.2612C95.6499 28.1961 95.797 28.1047 95.9257 27.9909C96.0586 27.8675 96.1676 27.7209 96.2471 27.5583C96.3144 27.403 96.3497 27.2358 96.351 27.0667C96.3445 26.7543 96.2595 26.4484 96.1037 26.177C95.7861 25.6356 95.3761 25.1533 94.8922 24.7515C93.9995 23.9919 93 23.3659 91.9253 22.8934C90.8419 22.3797 89.6635 22.0935 88.4639 22.0528C85.8085 22.0528 83.5932 22.6525 81.9811 23.7536C81.1378 24.284 80.422 24.9922 79.8845 25.828C79.3057 26.8491 79.0072 28.0036 79.0192 29.1755V29.3623C78.9974 30.5759 79.3934 31.7605 80.1417 32.7197C81.1949 34.0371 82.7525 34.8285 84.2805 35.3889C85.8085 35.9492 87.3266 36.2835 88.2908 36.603C89.6264 36.9904 90.9162 37.5194 92.1379 38.1809C92.6092 38.4502 93.0279 38.8015 93.3742 39.2181C93.6576 39.6057 93.8131 40.0711 93.8192 40.5503V40.5896C93.8274 41.257 93.6174 41.9091 93.2209 42.4477C92.575 43.2257 91.7163 43.8011 90.7484 44.1042C89.8949 44.4061 88.9987 44.572 88.093 44.5958C86.3639 44.6333 84.6515 44.252 83.1036 43.4849C82.5399 43.2047 82.085 42.9294 81.6696 42.6935C81.4669 42.5853 81.274 42.4821 81.0713 42.3985C80.8678 42.3131 80.6494 42.268 80.4285 42.2658C80.2745 42.2653 80.1219 42.2937 79.9785 42.3494C79.8322 42.4075 79.6994 42.4944 79.5878 42.605C79.4298 42.7449 79.2976 42.9113 79.1972 43.0965C79.1049 43.2848 79.0575 43.4917 79.0587 43.7012C79.0677 44.043 79.1777 44.3747 79.3752 44.6548C79.7219 45.112 80.1471 45.5047 80.6312 45.8149C81.263 46.2244 81.9241 46.5875 82.6091 46.9012C84.3372 47.6677 86.2012 48.0855 88.093 48.1301C90.6396 48.1301 92.845 47.5452 94.6994 46.1639C95.6012 45.5157 96.3373 44.666 96.8484 43.6833C97.3594 42.7006 97.6311 41.6123 97.6416 40.506C97.6647 39.391 97.3845 38.2905 96.8306 37.3207C95.9817 36.0578 94.773 35.0754 93.3593 34.4991ZM210.241 11.3368C209.769 11.3406 209.318 11.5297 208.985 11.8628C208.818 12.0264 208.685 12.2215 208.594 12.4367C208.503 12.6519 208.457 12.8829 208.456 13.1162V46.4244C208.456 46.6571 208.503 46.8875 208.594 47.102C208.685 47.3164 208.818 47.5106 208.985 47.673C209.238 47.9229 209.558 48.0935 209.907 48.1635C210.257 48.2335 210.619 48.1999 210.949 48.0667C211.279 47.9336 211.562 47.7069 211.763 47.4149C211.965 47.1229 212.075 46.7784 212.081 46.4244V13.1162C212.078 12.8793 212.028 12.6454 211.933 12.4277C211.839 12.2101 211.703 12.013 211.532 11.8478C211.361 11.6825 211.159 11.5523 210.938 11.4647C210.716 11.377 210.48 11.3335 210.241 11.3368ZM292.519 34.3025V34.4795C292.519 34.7113 292.469 34.9404 292.373 35.1515C292.277 35.3626 292.136 35.5508 291.961 35.7035C291.617 35.9983 291.178 36.1591 290.724 36.1557H270.668C271.162 41.0222 275.084 44.6106 279.752 44.6499H280.933C282.504 44.6249 284.032 44.1336 285.32 43.2391C286.655 42.3472 287.775 41.172 288.598 39.7982C288.753 39.5282 288.983 39.3081 289.261 39.1641C289.516 39.0232 289.804 38.9504 290.096 38.9527C290.416 38.9526 290.73 39.0374 291.006 39.1985C291.255 39.3736 291.458 39.6047 291.6 39.873C291.742 40.1412 291.818 40.439 291.822 40.742C291.823 41.0653 291.736 41.3829 291.57 41.6612C290.431 43.4791 288.914 45.033 287.119 46.218C285.289 47.4415 283.139 48.1093 280.933 48.14H279.732C278.049 48.1257 276.385 47.7759 274.84 47.1115C273.295 46.447 271.9 45.4812 270.737 44.2714C268.364 41.8325 267.034 38.5752 267.023 35.1824C267.01 31.7284 268.347 28.4042 270.752 25.9116C271.924 24.6972 273.332 23.731 274.889 23.0713C276.447 22.4115 278.123 22.0718 279.816 22.0725C283.066 22.0679 286.187 23.3358 288.504 25.6019C290.849 27.9127 292.268 30.9933 292.495 34.2681L292.519 34.3025ZM288.603 32.6214C288.141 30.6448 287.026 28.8792 285.435 27.6067C283.845 26.3342 281.872 25.6284 279.831 25.6019C277.774 25.6174 275.781 26.3156 274.168 27.5855C272.555 28.8554 271.416 30.6243 270.93 32.6116L288.603 32.6214ZM112.417 22.1167C109.728 22.1215 107.139 23.1263 105.158 24.9334V23.8962C105.158 23.4342 104.981 22.9896 104.663 22.6525C104.504 22.4845 104.311 22.3504 104.098 22.2583C103.885 22.1662 103.655 22.118 103.422 22.1167C103.186 22.1134 102.952 22.1572 102.733 22.2454C102.515 22.3337 102.316 22.4646 102.149 22.6305C101.982 22.7964 101.85 22.9939 101.762 23.2113C101.673 23.4287 101.629 23.6616 101.632 23.8962V46.9553L101.706 47.029C101.734 47.1147 101.774 47.1959 101.825 47.2699C102.072 47.7042 102.48 48.0253 102.962 48.1645H103.036H103.422C103.686 48.1626 103.945 48.1039 104.184 47.9925C104.396 47.896 104.583 47.7532 104.733 47.5747C104.733 47.5747 104.757 47.5304 104.782 47.5108C104.872 47.3999 104.947 47.2776 105.005 47.147C105.05 47.0269 105.086 46.9037 105.113 46.7783V46.7144V32.8278C105.154 30.9194 105.937 29.1009 107.299 27.7549C108.304 26.7381 109.591 26.0428 110.996 25.7583C112.401 25.4738 113.859 25.6131 115.184 26.1582C116.509 26.7034 117.639 27.6295 118.431 28.8179C119.222 30.0063 119.639 31.4026 119.627 32.8278V46.4244C119.629 46.7736 119.734 47.1145 119.929 47.4049C120.124 47.6952 120.401 47.9222 120.725 48.0577C121.049 48.1933 121.405 48.2314 121.751 48.1674C122.096 48.1034 122.415 47.94 122.668 47.6976C122.838 47.5319 122.973 47.3337 123.065 47.115C123.157 46.8963 123.203 46.6614 123.202 46.4244V32.8278C123.191 29.9886 122.051 27.2687 120.031 25.2619C118.01 23.2552 115.273 22.1245 112.417 22.1167ZM147.961 25.946C150.296 28.4411 151.594 31.7227 151.594 35.1308C151.594 38.5389 150.296 41.8205 147.961 44.3156C146.84 45.5392 145.475 46.5167 143.952 47.1855C142.43 47.8544 140.784 48.1999 139.119 48.1999C137.455 48.1999 135.809 47.8544 134.286 47.1855C132.764 46.5167 131.398 45.5392 130.278 44.3156C127.933 41.8254 126.628 38.5419 126.628 35.1308C126.628 31.7197 127.933 28.4362 130.278 25.946C131.4 24.7258 132.766 23.7513 134.288 23.0846C135.811 22.4179 137.456 22.0736 139.119 22.0736C140.783 22.0736 142.428 22.4179 143.95 23.0846C145.472 23.7513 146.838 24.7258 147.961 25.946ZM148.01 35.1333C148.026 32.6259 147.086 30.2055 145.379 28.3595C144.594 27.4818 143.631 26.7792 142.552 26.2982C141.474 25.8171 140.306 25.5684 139.124 25.5684C137.942 25.5684 136.774 25.8171 135.696 26.2982C134.618 26.7792 133.654 27.4818 132.869 28.3595C131.155 30.2025 130.208 32.6232 130.218 35.1333C130.208 37.633 131.156 40.0428 132.869 41.8726C133.657 42.7455 134.622 43.4437 135.699 43.9216C136.777 44.3995 137.944 44.6465 139.124 44.6465C140.304 44.6465 141.471 44.3995 142.549 43.9216C143.627 43.4437 144.591 42.7455 145.379 41.8726C147.085 40.0398 148.026 37.6303 148.01 35.1333ZM186.58 22.2691C186.377 22.1819 186.158 22.1367 185.937 22.1364C185.582 22.1377 185.234 22.2415 184.937 22.4352C184.639 22.6289 184.404 22.9041 184.261 23.2277L177.437 41.7988L172.176 29.3476C172.026 29.0144 171.778 28.7348 171.464 28.5463C171.156 28.3569 170.802 28.2564 170.44 28.2563C170.084 28.26 169.736 28.3647 169.437 28.5579C169.139 28.7512 168.902 29.0251 168.754 29.3476L163.468 41.8087L156.604 23.2424C156.489 22.9007 156.258 22.6091 155.952 22.4166C155.656 22.2282 155.313 22.1275 154.963 22.1266C154.732 22.1268 154.503 22.1719 154.29 22.2593C153.875 22.4516 153.55 22.7947 153.382 23.2181C153.213 23.6414 153.215 24.1128 153.385 24.5352L161.796 47.0831C161.868 47.262 161.968 47.428 162.093 47.5747C162.206 47.6938 162.338 47.7935 162.484 47.8696C162.527 47.9076 162.573 47.9421 162.622 47.9728C162.7 48.0178 162.786 48.0494 162.874 48.0662C163.072 48.1399 163.281 48.1798 163.493 48.1842C163.83 48.1768 164.158 48.0727 164.437 47.8843C164.725 47.6959 164.946 47.4226 165.07 47.1028H165.095L170.43 34.4205L175.776 47.0536C175.893 47.3674 176.099 47.6407 176.369 47.8401C176.625 48.0338 176.926 48.159 177.244 48.2039H177.467C177.671 48.2054 177.874 48.1687 178.065 48.0957C178.227 48.0324 178.38 47.9481 178.52 47.845C178.804 47.6211 179.026 47.3283 179.163 46.9946L187.569 24.5647C187.743 24.1368 187.74 23.658 187.562 23.232C187.383 22.8061 187.043 22.4672 186.615 22.2888L186.58 22.2691Z" fill="white"/>
</g>
<defs>
<clipPath id="clip0_452_1650">
<rect width="301.657" height="68.3663" fill="white" transform="translate(0 0.876465)"/>
</clipPath>
</defs>
</svg>
