<svg width="120" height="68" viewBox="0 0 120 68" fill="none" xmlns="http://www.w3.org/2000/svg">
<g opacity="0.4" clip-path="url(#clip0_452_1627)">
<mask id="mask0_452_1627" style="mask-type:luminance" maskUnits="userSpaceOnUse" x="60" y="1" width="16" height="37">
<path d="M75.8816 10.6067L60.7458 1.99512V37.2918L66.7926 33.7976V23.8663L71.3594 26.4986L71.3336 19.7042L66.7926 17.1209V13.176L75.9027 18.4172L75.8816 10.6067Z" fill="white"/>
</mask>
<g mask="url(#mask0_452_1627)">
<path d="M80.0215 1.86646H42.8516V37.3359H80.0215V1.86646Z" fill="white"/>
</g>
<mask id="mask1_452_1627" style="mask-type:luminance" maskUnits="userSpaceOnUse" x="44" y="1" width="16" height="37">
<path d="M44.2496 10.6067L59.3854 1.99512V37.2918L53.3386 33.7976V13.176L44.2285 18.4172L44.2496 10.6067Z" fill="white"/>
</mask>
<g mask="url(#mask1_452_1627)">
<path d="M79.7705 1.86646H42.6006V37.3359H79.7705V1.86646Z" fill="white"/>
</g>
<path d="M13.7996 51.4831H8.32973V66.4852H5.31569V51.4831H-0.0978394V49.04H13.7996V51.4831Z" fill="white"/>
<path d="M17.4235 66.7232C15.5705 66.7232 14.0686 66.1424 12.9177 64.9808C11.7668 63.8192 11.1913 62.2715 11.1913 60.3375V59.9848C11.1707 58.7866 11.4275 57.5998 11.9419 56.5164C12.4053 55.5407 13.1374 54.7162 14.0529 54.1387C14.96 53.5711 16.0122 53.2759 17.0834 53.2885C18.8566 53.2885 20.2264 53.8514 21.1928 54.9772C22.1591 56.103 22.6408 57.6943 22.6376 59.7513V60.9191H14.1374C14.2265 61.992 14.5861 62.839 15.2163 63.4603C15.5277 63.7689 15.899 64.0109 16.3076 64.1715C16.7161 64.3321 17.1533 64.4081 17.5924 64.3946C18.2272 64.4074 18.8558 64.2682 19.4252 63.9885C19.9946 63.7088 20.4882 63.297 20.8644 62.7876L22.4406 64.2848C21.9187 65.0605 21.198 65.6831 20.3531 66.0879C19.4392 66.5231 18.4363 66.7406 17.4235 66.7232ZM17.074 55.6171C16.708 55.6042 16.3437 55.6727 16.0077 55.8178C15.6718 55.9628 15.3725 56.1808 15.1319 56.4556C14.6362 57.0131 14.3234 57.7916 14.1936 58.7913H19.7643V58.5834C19.7002 57.6102 19.4399 56.8737 18.9833 56.3739C18.7394 56.1172 18.4422 55.9165 18.1125 55.7858C17.7827 55.6551 17.4283 55.5975 17.074 55.6171Z" fill="white"/>
<path d="M27.6267 53.5196L27.7111 55.0168C28.1657 54.456 28.7444 54.0075 29.4019 53.7064C30.0595 53.4054 30.7781 53.2599 31.5015 53.2814C34.213 53.2814 35.5922 54.8268 35.6391 57.9177V66.4849H32.7236V58.0765C32.7236 57.252 32.5453 56.6447 32.1888 56.2477C31.8323 55.8506 31.2506 55.6544 30.4367 55.6544C29.2592 55.6544 28.3812 56.1862 27.8026 57.2497V66.4756H24.8707V53.5196H27.6267Z" fill="white"/>
<path d="M45.1268 62.9629C45.1369 62.7258 45.0825 62.4904 44.9694 62.2815C44.8563 62.0727 44.6886 61.8981 44.4841 61.7763C44.0541 61.5023 43.3418 61.2625 42.3473 61.0569C41.4882 60.8928 40.652 60.627 39.8563 60.2652C38.3974 59.5629 37.6679 58.5445 37.6679 57.2101C37.6631 56.6654 37.7881 56.1273 38.0328 55.64C38.2774 55.1528 38.6347 54.7303 39.0752 54.4073C40.0229 53.6552 41.2261 53.2799 42.6851 53.2815C44.2394 53.2815 45.4966 53.6646 46.4567 54.4307C46.918 54.7787 47.29 55.2307 47.5419 55.7496C47.7939 56.2684 47.9188 56.8394 47.9063 57.4156H44.9837C44.99 57.1504 44.9371 56.8872 44.8288 56.6448C44.7205 56.4025 44.5595 56.1871 44.3574 56.0142C43.8944 55.6263 43.3012 55.4269 42.6968 55.456C42.1393 55.4311 41.5887 55.5868 41.1276 55.8998C40.935 56.0316 40.7784 56.2091 40.672 56.4162C40.5655 56.6234 40.5125 56.8537 40.5178 57.0863C40.5119 57.2943 40.5613 57.5002 40.661 57.6831C40.7606 57.8661 40.907 58.0195 41.0854 58.128C41.4607 58.3756 42.2222 58.6255 43.37 58.8778C44.3065 59.0578 45.215 59.3602 46.072 59.777C46.657 60.0636 47.1584 60.4946 47.5286 61.0289C47.856 61.5613 48.0192 62.1778 47.9977 62.8017C48.0077 63.3568 47.88 63.9058 47.6259 64.4C47.3718 64.8942 46.9992 65.3183 46.5411 65.6349C45.5732 66.3589 44.3019 66.7202 42.7273 66.7186C41.7466 66.7364 40.7739 66.5403 39.8774 66.144C39.0953 65.8034 38.4214 65.2567 37.9283 64.5628C37.4724 63.9302 37.2264 63.1716 37.2246 62.3929H40.0651C40.0678 62.699 40.1394 63.0005 40.2746 63.2753C40.4098 63.5502 40.6051 63.7914 40.8461 63.9812C41.4033 64.3757 42.0773 64.5723 42.7601 64.5394C43.5295 64.5394 44.1151 64.3931 44.5169 64.1003C44.7059 63.9766 44.8608 63.8076 44.9673 63.6089C45.0739 63.4102 45.1287 63.1881 45.1268 62.9629Z" fill="white"/>
<path d="M49.5083 59.882C49.4889 58.6944 49.7484 57.5187 50.2659 56.4485C50.7295 55.4752 51.4701 54.659 52.3956 54.1012C53.3505 53.5439 54.4415 53.2602 55.5481 53.2814C57.3057 53.2814 58.731 53.8443 59.824 54.9701C60.917 56.0959 61.5089 57.5891 61.5996 59.4499L61.6113 60.1342C61.6312 61.3178 61.3776 62.4902 60.8701 63.5607C60.4114 64.5283 59.6773 65.3404 58.7591 65.8963C57.7953 66.4595 56.6935 66.7457 55.5762 66.7232C53.7389 66.7232 52.269 66.1143 51.1666 64.8967C50.0642 63.679 49.513 62.0557 49.513 60.0268L49.5083 59.882ZM52.4261 60.1342C52.4261 61.4687 52.7029 62.5127 53.2565 63.2664C53.516 63.6322 53.8634 63.9275 54.267 64.1253C54.6705 64.3232 55.1174 64.4173 55.5668 64.3992C56.017 64.4169 56.4643 64.3209 56.8671 64.1199C57.2699 63.919 57.615 63.6197 57.8702 63.25C58.4206 62.4808 58.6958 61.3581 58.6958 59.882C58.6958 58.5709 58.4128 57.5323 57.8467 56.7662C57.5817 56.4109 57.2372 56.122 56.8406 55.9225C56.4439 55.7229 56.006 55.6182 55.5616 55.6166C55.1171 55.6151 54.6785 55.7166 54.2804 55.9134C53.8823 56.1101 53.5357 56.3965 53.2682 56.7498C52.7068 57.505 52.4261 58.6332 52.4261 60.1342Z" fill="white"/>
<path d="M70.4071 56.1801C70.014 56.116 69.6163 56.0839 69.2179 56.0843C67.8763 56.0843 66.9732 56.5959 66.5088 57.6189V66.4944H63.5862V53.5198H66.3775L66.4502 54.9702C67.1554 53.8444 68.1335 53.2815 69.3844 53.2815C69.7367 53.2709 70.0877 53.3272 70.4188 53.4474L70.4071 56.1801Z" fill="white"/>
<path d="M82.6322 59.0928H75.5814V66.4852H72.5322V49.04H83.6619V51.4831H75.5814V56.6707H82.6322V59.0928Z" fill="white"/>
<path d="M88.4093 66.4851H85.4844V49.0073H88.4093V66.4851Z" fill="white"/>
<path d="M90.5508 59.882C90.5325 58.6945 90.7919 57.519 91.3084 56.4485C91.7727 55.4757 92.5131 54.6596 93.4381 54.1012C94.393 53.5439 95.484 53.2602 96.5906 53.2814C98.3466 53.2814 99.7727 53.8443 100.869 54.9701C101.965 56.0959 102.557 57.5891 102.644 59.4499V60.1342C102.67 61.3169 102.421 62.4894 101.917 63.5607C101.46 64.5293 100.726 65.3418 99.8063 65.8963C98.8434 66.4598 97.7424 66.746 96.6257 66.7232C94.7868 66.7232 93.3162 66.1143 92.2138 64.8967C91.1113 63.679 90.5641 62.0557 90.5719 60.0268L90.5508 59.882ZM93.4733 60.1342C93.4733 61.4687 93.7501 62.5127 94.3036 63.2664C94.5748 63.6201 94.9246 63.9065 95.3255 64.1031C95.7265 64.2997 96.1677 64.4012 96.6146 64.3996C97.0615 64.398 97.502 64.2934 97.9015 64.094C98.301 63.8945 98.6487 63.6057 98.9173 63.25C99.4662 62.4808 99.7406 61.3581 99.7406 59.882C99.7406 58.5709 99.4584 57.5323 98.8939 56.7662C98.6356 56.3991 98.2895 56.1019 97.887 55.9013C97.4845 55.7006 97.0381 55.603 96.5882 55.617C96.1448 55.6039 95.7051 55.7005 95.3084 55.8982C94.9117 56.0959 94.5705 56.3885 94.3154 56.7498C93.754 57.505 93.4733 58.6332 93.4733 60.1342Z" fill="white"/>
<path d="M115.85 62.4701L117.919 53.5198H120.771L117.222 66.4851H114.818L112.027 57.5815L109.282 66.4851H106.873L103.325 53.5198H106.177L108.288 62.3743L110.959 53.5198H113.162L115.85 62.4701Z" fill="white"/>
</g>
<defs>
<clipPath id="clip0_452_1627">
<rect width="119.817" height="66.9567" fill="white" transform="translate(0.1828 0.790771)"/>
</clipPath>
</defs>
</svg>
