<svg width="128" height="67" viewBox="0 0 128 67" fill="none" xmlns="http://www.w3.org/2000/svg">
<g opacity="0.4" clip-path="url(#clip0_452_1664)">
<path fill-rule="evenodd" clip-rule="evenodd" d="M116.786 33.5448C116.676 33.3092 116.626 33.1907 116.567 33.0776C114.972 30.0448 113.382 27.012 111.772 23.9792C111.61 23.6751 111.631 23.4956 111.852 23.2333C114.388 20.2702 116.892 17.2907 119.433 14.3399C119.523 14.2358 119.603 14.1255 119.637 13.9399C118.899 14.1321 118.161 14.3222 117.419 14.5177C114.358 15.3292 111.272 16.1366 108.239 16.9604C107.954 17.037 107.825 16.9538 107.682 16.7169C105.944 13.8112 104.194 10.8972 102.436 8.02837C102.346 7.87796 102.248 7.73205 102.057 7.60623C101.916 8.38083 101.773 9.15132 101.635 9.92591C101.147 12.6595 100.659 15.3767 100.176 18.1227C100.123 18.4173 100.051 18.7128 100.025 19.0079C100.001 19.2899 99.8555 19.394 99.5989 19.4751C95.9884 20.6104 92.386 21.7538 88.7795 22.8973C88.6213 22.9468 88.466 23.0124 88.2959 23.1661C91.2467 24.3382 94.1974 25.5104 97.1891 26.703C97.0801 26.7895 97.008 26.8567 96.9281 26.9079C95.0839 28.1006 93.2356 29.2932 91.3954 30.4899C91.1745 30.6342 90.9999 30.6547 90.752 30.5428C88.5471 29.551 86.3259 28.5756 84.1128 27.5919C83.121 27.1493 82.2317 26.5632 81.5391 25.7108C79.9695 23.7928 80.2809 21.6124 82.371 20.26C83.0555 19.8214 83.8341 19.4977 84.6087 19.2436C88.1455 18.0919 91.6987 16.9813 95.2232 15.8665C95.5207 15.7718 95.6576 15.639 95.715 15.3173C96.1904 12.5796 96.6781 9.8255 97.174 7.12058C97.4379 5.65746 97.5772 4.16155 98.2887 2.81729C98.5612 2.30089 98.8871 1.79679 99.2805 1.36646C100.69 -0.199114 102.653 -0.256491 104.157 1.23204C104.662 1.73614 105.092 2.3263 105.465 2.93696C107.104 5.6132 108.719 8.30583 110.342 11.0108C110.532 11.3292 110.704 11.3931 111.055 11.3005C115.01 10.239 118.964 9.19394 122.94 8.14886C123.759 7.93288 124.583 7.8546 125.423 8.01156C127.247 8.35255 128.046 9.74108 127.427 11.5075C127.147 12.3108 126.661 12.987 126.116 13.6304C123.354 16.8804 120.583 20.1468 117.837 23.3846C117.612 23.6501 117.607 23.8395 117.764 24.1387C119.419 27.2575 121.059 30.3682 122.723 33.5239C123.116 34.2698 123.419 35.0485 123.427 35.9051C123.447 37.8559 122.018 39.4543 120.079 39.7412C118.993 39.8998 117.985 39.6678 116.965 39.3539C114.485 38.5875 112.006 37.8334 109.506 37.0834C109.275 37.0145 109.187 36.9231 109.145 36.6752C108.86 34.9252 108.547 33.1793 108.244 31.4292C108.236 31.3813 108.25 31.3301 108.259 31.2227C111.09 32.0055 113.914 32.776 116.824 33.5834" fill="white"/>
<path fill-rule="evenodd" clip-rule="evenodd" d="M111.868 59.1596C109.63 59.1563 107.401 59.1452 105.147 59.155C104.85 59.155 104.684 59.0702 104.52 58.8186C101.872 54.7858 99.192 50.7448 96.5691 46.7284C96.4843 46.6005 96.3945 46.4771 96.2441 46.2612C95.6744 50.6054 95.113 54.8677 94.5515 59.13H88.691C88.7598 58.5604 88.8209 58.0071 88.893 57.4579C89.4627 53.0727 90.0406 48.7284 90.6143 44.3431C91.1635 40.1628 91.7085 35.9825 92.2659 31.8021C92.2819 31.6788 92.3651 31.5201 92.4659 31.4546C94.4823 30.139 96.5068 28.8357 98.5313 27.5324C98.5604 27.5132 98.6018 27.5115 98.7059 27.4812C98.0953 32.1533 97.4887 36.7845 96.8781 41.4157C96.9023 41.4316 96.9261 41.4493 96.9502 41.4652C100.126 37.9488 103.303 34.4161 106.54 30.8505C106.633 31.3915 106.715 31.8546 106.795 32.3177C107.022 33.6415 107.241 34.9734 107.483 36.2972C107.533 36.5644 107.461 36.7275 107.283 36.9161C105.23 39.0636 103.185 41.2193 101.136 43.3915C101.046 43.4862 100.961 43.5837 100.859 43.696C100.924 43.7997 100.98 43.9009 101.046 43.9935C104.575 48.9526 108.095 53.9116 111.62 58.8706C111.683 58.9604 111.776 59.0309 111.855 59.1108V59.1891" fill="white"/>
<path fill-rule="evenodd" clip-rule="evenodd" d="M42.6072 46.0448C42.5175 45.5899 42.4535 44.9177 42.2502 44.2907C41.2667 41.262 38.1643 39.6185 34.9553 40.3522C31.4267 41.1718 28.8899 43.9464 28.562 47.5653C28.2916 50.2292 29.7259 52.8112 32.3898 53.7538C34.5373 54.5284 36.611 54.2046 38.5372 53.053C41.0822 51.5284 42.4593 49.262 42.6355 46.0448H42.6072ZM27.1158 57.3153C26.9428 58.6186 26.7764 59.844 26.6158 61.0735C26.4014 62.7047 26.1855 64.3399 25.9805 65.9916C25.9568 66.1821 25.899 66.267 25.6941 66.2653C24.0835 66.2592 22.4728 66.2608 20.8581 66.2575C20.8212 66.2575 20.7843 66.2383 20.6979 66.2129C20.7954 65.4424 20.8901 64.6678 20.9909 63.8973C21.3462 61.1924 21.6999 58.4874 22.0605 55.7825C22.4745 52.6841 22.7982 49.594 23.3269 46.5202C24.2613 41.0694 28.9006 36.3972 34.3103 35.2087C37.4536 34.5284 40.4577 34.8435 43.2035 36.6144C45.9411 38.3767 47.5067 40.9587 47.8755 44.1554C48.3837 48.7046 46.7075 52.4751 43.4904 55.6309C41.3675 57.6842 38.8184 58.9874 35.9086 59.4301C32.8882 59.885 30.0481 59.3821 27.5071 57.6022C27.4141 57.5366 27.3133 57.4792 27.1535 57.3784" fill="white"/>
<path fill-rule="evenodd" clip-rule="evenodd" d="M24.4109 31.4956C22.6077 32.8398 20.8659 34.1349 19.1241 35.4341C18.8426 34.9915 18.5914 34.5489 18.2963 34.1349C17.5381 33.0735 16.5955 32.2825 15.2267 32.1882C14.0874 32.1079 13.112 32.4825 12.3374 33.3235C11.6448 34.0735 11.5546 35.1431 12.2014 35.9915C12.9145 36.9259 13.6931 37.8112 14.4923 38.6759C15.816 40.1104 17.1971 41.4874 18.5086 42.9382C19.7012 44.2497 20.6561 45.7169 20.9512 47.5284C21.302 49.6596 20.8762 51.6678 19.8692 53.553C18.0045 57.0161 15.0742 59.0448 11.1809 59.6596C9.46781 59.9362 7.76293 59.8821 6.09904 59.3903C3.88188 58.7387 2.33683 57.2838 1.34505 55.251C0.994647 54.5256 0.726211 53.7592 0.410645 52.9805C2.34912 51.9436 4.23842 50.9313 6.14822 49.9108C6.21379 50.0694 6.26174 50.2022 6.3228 50.3288C6.64943 50.9805 6.91705 51.6731 7.31868 52.2756C8.51947 54.0583 10.4539 54.5993 12.4005 53.7182C12.9046 53.4907 13.3923 53.1731 13.8062 52.8042C15.0685 51.6813 15.3062 50.1157 14.3718 48.7059C13.8349 47.8944 13.1628 47.1649 12.5071 46.4395C10.9415 44.7018 9.31044 43.0173 7.79408 41.2345C6.74083 40.0132 6.02363 38.5952 5.79413 36.9722C5.54618 35.1853 5.90314 33.505 6.83099 32.0132C9.13831 28.2796 12.4866 26.3575 16.9127 26.4804C19.4414 26.5718 21.4618 27.755 23.0191 29.7222C23.4822 30.3042 23.9167 30.9066 24.388 31.5378" fill="white"/>
<path fill-rule="evenodd" clip-rule="evenodd" d="M67.1968 51.3725C66.9021 53.6226 66.623 55.7578 66.3362 57.889C66.3202 57.998 66.2354 58.1451 66.144 58.1869C61.7588 60.2115 56.0212 59.9287 52.4558 55.8549C50.5296 53.6664 49.7222 51.0598 49.8411 48.191C50.121 41.5106 55.6606 35.65 62.2998 34.8303C66.1726 34.3549 69.5537 35.4 72.1766 38.4123C73.9635 40.4615 74.7913 42.9205 74.6684 45.6254C74.5884 47.4123 74.3081 49.1869 74.0864 50.9533C73.7708 53.4697 73.4266 55.9943 73.0946 58.4943C73.0819 58.582 73.0643 58.6717 73.0434 58.7857H67.8386C67.9074 58.2078 67.9714 57.6422 68.0451 57.0767C68.423 54.1709 68.8402 51.257 69.1722 48.3471C69.3787 46.5356 69.2488 44.7365 68.4181 43.0602C67.537 41.2774 66.0616 40.3307 64.1149 40.1258C60.0904 39.6996 56.2462 42.4947 55.4266 46.4373C54.861 49.052 55.7532 51.5603 57.8364 52.9537C59.865 54.3021 62.0166 54.3062 64.2297 53.4332C65.3526 52.9906 66.3034 52.2857 67.2132 51.3389" fill="white"/>
<path fill-rule="evenodd" clip-rule="evenodd" d="M89.3274 35.512C89.0889 37.3235 88.852 39.1063 88.6143 40.9219C87.5078 40.9219 86.4258 40.9157 85.3439 40.9235C84.4669 40.93 83.6677 41.4973 83.4013 42.3169C83.2989 42.637 83.2608 42.9809 83.2157 43.3169C82.6665 47.4973 82.1214 51.6366 81.5764 55.776C81.4387 56.8252 81.3059 57.8744 81.1682 58.9399H75.7175C75.8183 58.1408 75.9142 57.3662 76.015 56.5916C76.3687 53.8948 76.724 51.1817 77.0806 48.5178C77.3896 46.1858 77.6666 43.8456 78.0314 41.5096C78.5191 38.3948 81.6174 35.6079 84.7525 35.485C86.2525 35.4194 87.7566 35.4739 89.3016 35.4739" fill="white"/>
<path d="M118.425 59.1597V56.8646H118.412L117.511 59.1597H117.224L116.323 56.8646H116.308V59.1597H115.858V56.4097H116.558L117.378 58.4998L118.185 56.4097H118.882V59.1597H118.425ZM114.433 56.7785V59.1597H113.983V56.7785H113.122V56.4101H115.298V56.7785H114.438" fill="white"/>
<path d="M31.6648 27.6432H33.0132L32.6943 25.6022L31.6648 27.6432ZM33.2263 28.9628H30.9845L30.2714 30.3604H28.6813L32.1853 23.803H33.7181L34.9107 30.3604H33.4394L33.2279 28.9628" fill="white"/>
<path d="M41.2548 25.1432H40.4556L40.1868 26.6555H40.9859C41.4695 26.6555 41.8507 26.3387 41.8507 25.7416C41.8507 25.3461 41.6105 25.1432 41.2523 25.1432H41.2548ZM39.3204 23.8236H41.4187C42.517 23.8236 43.2834 24.4793 43.2834 25.6023C43.2834 27.0203 42.2834 27.9711 40.8573 27.9711H39.9515L39.5253 30.3687H38.1565L39.3122 23.8113" fill="white"/>
<path d="M47.9349 27.6432H49.2833L48.9648 25.6022L47.9349 27.6432ZM49.4923 28.9628H47.2505L46.5374 30.3604H44.9473L48.4513 23.803H49.9841L51.1767 30.3604H49.7054L49.4939 28.9628" fill="white"/>
<path d="M58.1806 30.1432C57.7175 30.3546 57.2093 30.4809 56.697 30.4809C54.9635 30.4809 53.8774 29.1817 53.8774 27.5546C53.8774 25.4727 55.6274 23.7227 57.7093 23.7227C58.2298 23.7227 58.7011 23.8477 59.0863 24.0587L58.8941 25.6284C58.606 25.31 58.14 25.0874 57.5663 25.0874C56.3737 25.0874 55.3122 26.1653 55.3122 27.4153C55.3122 28.3661 55.9106 29.112 56.8532 29.112C57.431 29.112 57.9884 28.8895 58.3654 28.5833L58.1831 30.1407" fill="white"/>
<path d="M66.787 27.7251H63.9387L63.4756 30.3604H62.1109L63.2666 23.803H64.6354L64.1764 26.3932H67.0247L67.4878 23.803H68.8566L67.7009 30.3604H66.3321L66.7911 27.7251" fill="white"/>
<path d="M71.7049 30.3479L72.8606 23.7905H76.4917L76.2609 25.1102H73.9987L73.768 26.3807H75.8458L75.6151 27.7004H73.5372L73.3065 29.02H75.5687L75.338 30.3397H71.707" fill="white"/>
</g>
<defs>
<clipPath id="clip0_452_1664">
<rect width="127.57" height="66.2519" fill="white" transform="translate(0.395081 0.143066)"/>
</clipPath>
</defs>
</svg>
