<svg width="67" height="68" viewBox="0 0 67 68" fill="none" xmlns="http://www.w3.org/2000/svg">
<g opacity="0.4" clip-path="url(#clip0_452_1679)">
<path d="M1.33082 67.2243L33.1399 34.6185C33.2381 34.5214 33.299 34.393 33.312 34.2556C33.325 34.1182 33.2893 33.9806 33.211 33.8669C31.2768 31.1664 27.7075 30.698 26.3846 28.8834C22.4664 23.5086 21.4722 20.4657 19.7883 20.6545C19.6708 20.6714 19.5628 20.7285 19.4825 20.8159L7.9921 32.5951C1.38117 39.3661 0.431227 54.2906 0.25965 66.7885C0.259081 66.9128 0.29575 67.0345 0.364936 67.1379C0.434123 67.2412 0.532658 67.3215 0.647857 67.3683C0.763055 67.4152 0.889642 67.4265 1.01132 67.4008C1.133 67.3751 1.24442 67.3137 1.33082 67.2243Z" fill="white"/>
<path d="M66.4283 66.4188L33.8225 34.6075C33.7254 34.5091 33.5968 34.448 33.4591 34.435C33.3215 34.422 33.1836 34.4579 33.0698 34.5365C30.3693 36.4718 29.901 40.04 28.0864 41.3629C22.7115 45.2811 19.6687 46.2753 19.8575 47.9592C19.8747 48.0763 19.9317 48.1839 20.0189 48.2639L31.798 59.7543C38.569 66.3652 53.4936 67.3151 65.9914 67.4867C66.1152 67.4868 66.2362 67.45 66.3389 67.3811C66.4417 67.3122 66.5216 67.2142 66.5684 67.0997C66.6153 66.9851 66.627 66.8592 66.602 66.738C66.577 66.6168 66.5167 66.5054 66.4283 66.4188Z" fill="white"/>
<path d="M31.8002 59.7546C28.0988 56.1434 26.3835 49.0002 33.4772 34.2698C21.9449 39.4236 17.904 46.198 19.8913 48.1377L31.8002 59.7546Z" fill="white"/>
<path d="M65.6228 1.31983L33.8147 33.9256C33.7163 34.0225 33.6553 34.151 33.6423 34.2885C33.6293 34.4259 33.6651 34.5636 33.7436 34.6772C35.679 37.3777 39.2461 37.8461 40.5701 39.6607C44.4882 45.0355 45.4835 48.0784 47.1663 47.8896C47.2839 47.8728 47.392 47.8158 47.4722 47.7282L58.9626 35.949C65.5735 29.178 66.5234 14.2535 66.695 1.75562C66.6952 1.63127 66.6583 1.50969 66.589 1.40646C66.5197 1.30324 66.4211 1.22308 66.3059 1.17627C66.1907 1.12946 66.0641 1.11814 65.9424 1.14375C65.8207 1.16936 65.7093 1.23055 65.6228 1.31983Z" fill="white"/>
<path d="M58.9689 35.9489C55.3577 39.6504 48.2145 41.3656 33.483 34.272C38.6369 45.8042 45.4113 49.8452 47.3509 47.8579L58.9689 35.9489Z" fill="white"/>
<path d="M0.52399 2.12447L33.1298 33.9326C33.2268 34.0307 33.3553 34.0917 33.4927 34.1047C33.6301 34.1177 33.7677 34.0819 33.8814 34.0036C36.5819 32.0683 37.0502 28.5001 38.8648 27.1772C44.2397 23.259 47.2826 22.2648 47.0937 20.5809C47.0765 20.4635 47.0196 20.3555 46.9323 20.2751L35.1532 8.78471C28.3822 2.17378 13.4577 1.22384 0.959784 1.05226C0.835179 1.05145 0.713194 1.08803 0.609596 1.15727C0.505997 1.22651 0.425547 1.32523 0.378641 1.44068C0.331736 1.55612 0.320532 1.68298 0.346477 1.80485C0.372423 1.92673 0.434132 2.03814 0.52399 2.12447Z" fill="white"/>
<path d="M35.1585 8.78564C38.86 12.3969 40.5752 19.54 33.4816 34.2715C45.0138 29.1177 49.0547 22.3423 47.0675 20.4037L35.1585 8.78564Z" fill="white"/>
<path d="M7.9924 32.5951C11.6036 28.8937 18.7468 27.1784 33.4783 34.2721C28.3245 22.7398 21.5501 18.6989 19.6104 20.6861L7.9924 32.5951Z" fill="white"/>
<path d="M33.483 35.6883C34.2683 35.6883 34.9049 35.0517 34.9049 34.2664C34.9049 33.4811 34.2683 32.8445 33.483 32.8445C32.6978 32.8445 32.0612 33.4811 32.0612 34.2664C32.0612 35.0517 32.6978 35.6883 33.483 35.6883Z" fill="white"/>
</g>
<defs>
<clipPath id="clip0_452_1679">
<rect width="66.9567" height="66.9567" fill="white" transform="translate(0 0.790771)"/>
</clipPath>
</defs>
</svg>
