<svg width="72" height="66" viewBox="0 0 72 66" fill="none" xmlns="http://www.w3.org/2000/svg">
<g opacity="0.4" clip-path="url(#clip0_452_1593)">
<path d="M32.3965 0.057665C29.7346 0.070086 27.1926 0.29807 24.9559 0.69554C18.3669 1.86457 17.1706 4.31144 17.1706 8.82388V14.7835H32.7413V16.77H17.1706H11.327C6.80174 16.77 2.83927 19.5015 1.59986 24.6978C0.170221 30.654 0.106809 34.3708 1.59986 40.59C2.70669 45.2194 5.34993 48.5179 9.87521 48.5179H15.2288V41.3737C15.2288 36.2124 19.6755 31.6598 24.9559 31.6598H40.5085C44.8378 31.6598 48.2939 28.08 48.2939 23.7137V8.82388C48.2939 4.58616 44.734 1.4028 40.5085 0.69554C37.8337 0.248386 35.0583 0.0452439 32.3965 0.057665ZM23.976 4.85084C25.5843 4.85084 26.8977 6.19141 26.8977 7.83973C26.8977 9.48222 25.5843 10.8104 23.976 10.8104C22.3618 10.8104 21.0542 9.48222 21.0542 7.83973C21.0542 6.19141 22.3618 4.85084 23.976 4.85084Z" fill="white"/>
<path d="M50.2356 16.77V23.7137C50.2356 29.0971 45.6909 33.6281 40.5085 33.6281H24.9559C20.6958 33.6281 17.1706 37.2897 17.1706 41.5742V56.464C17.1706 60.7018 20.8399 63.1943 24.9559 64.4101C29.8847 65.8656 34.6112 66.1286 40.5085 64.4101C44.4285 63.2703 48.2938 60.9765 48.2938 56.464V50.5045H32.7413V48.5179H48.2938H56.0792C60.6045 48.5179 62.2908 45.348 63.8646 40.5901C65.4902 35.6918 65.421 30.9814 63.8646 24.6979C62.7462 20.1738 60.6102 16.77 56.0792 16.77H50.2356ZM41.4885 54.4775C43.1026 54.4775 44.4102 55.8057 44.4102 57.4482C44.4102 59.0965 43.1026 60.4371 41.4885 60.4371C39.8801 60.4371 38.5667 59.0965 38.5667 57.4482C38.5667 55.8057 39.8801 54.4775 41.4885 54.4775Z" fill="white"/>
</g>
<defs>
<clipPath id="clip0_452_1593">
<rect width="71.1855" height="65.5471" fill="white" transform="translate(0.503723 0.0571289)"/>
</clipPath>
</defs>
</svg>
