<svg width="300" height="62" viewBox="0 0 300 62" fill="none" xmlns="http://www.w3.org/2000/svg">
<g opacity="0.4" clip-path="url(#clip0_452_1569)">
<path d="M162.519 25.4921C161.463 25.4921 159.785 25.7404 157.858 26.4853V16.5532H153.818L153.943 43.6183C156.367 44.4252 158.604 44.8598 160.966 44.8598C167.678 44.8598 171.469 41.2594 171.469 35.176C171.531 29.2788 167.926 25.4921 162.519 25.4921ZM161.401 41.1973C160.282 41.1973 159.101 40.949 157.858 40.5145V30.1478C158.853 29.7133 160.282 29.1546 161.711 29.1546C165.067 29.1546 167.243 31.3893 167.243 35.176C167.305 39.0246 165.13 41.1973 161.401 41.1973Z" fill="white"/>
<path d="M190.921 12.7043H186.944V48.2738H190.921V12.7043Z" fill="white"/>
<path d="M216.278 25.5542C210.809 25.5542 207.267 29.465 207.08 34.9897C206.894 40.0799 209.877 44.3632 216.03 44.9839C219.137 45.2943 221.623 44.7977 223.985 43.6182V39.8316C222.182 40.949 218.826 41.5077 216.527 41.3214C213.668 41.0731 211.617 39.4592 211.306 36.045H225.041C225.29 29.7754 221.996 25.5542 216.278 25.5542ZM211.555 33.0654C212.363 30.5823 214.6 29.0925 216.962 29.2167C219.261 29.3408 220.566 30.6444 220.691 33.0654H211.555Z" fill="white"/>
<path d="M277.806 37.6591V25.9268H273.766V38.1557C273.766 42.2527 276.935 44.7357 282.032 44.7357C287.066 44.7357 290.297 42.2527 290.297 38.1557V25.9268H286.258V37.6591C286.258 40.5146 284.58 41.8182 282.032 41.8182C279.484 41.8182 277.806 40.5146 277.806 37.6591Z" fill="white"/>
<path d="M130.513 25.4299V26.7956C129.145 25.9265 127.654 25.5541 125.851 25.5541C120.507 25.5541 116.84 29.3407 116.84 35.2379C116.84 41.3834 120.631 44.9838 127.343 44.9217C129.891 44.9217 132.688 44.4251 134.366 43.6802L134.49 25.492H130.513V25.4299ZM130.45 40.7626C129.021 41.1351 127.902 41.1972 127.032 41.1972C123.303 41.2592 121.128 39.0245 121.128 35.2379C121.128 31.4513 123.303 29.2166 126.659 29.2166C128.027 29.2166 129.27 29.6511 130.513 30.5201L130.45 40.7626Z" fill="white"/>
<path d="M254.189 25.4299V26.7956C252.822 25.9265 251.33 25.5541 249.528 25.5541C244.183 25.5541 240.516 29.3407 240.516 35.2379C240.516 41.3834 244.307 44.9838 251.019 44.9217C253.567 44.9217 256.364 44.4251 258.042 43.6802L258.167 25.492H254.189V25.4299ZM254.065 40.7626C252.635 41.1351 251.392 41.1972 250.646 41.1972C246.918 41.1972 244.742 39.0245 244.742 35.2379C244.742 31.4513 246.918 29.2166 250.274 29.2166C251.641 29.2166 252.884 29.6511 254.127 30.5201L254.065 40.7626Z" fill="white"/>
<path d="M87.692 29.0925H76.9403V32.7549H87.692V44.9839H91.6696V32.7549H102.359V29.0925H91.6696V17.7947H87.692V29.0925Z" fill="white"/>
<path d="M296.823 25.7402C295.518 25.7402 294.461 26.7955 294.461 28.0991C294.461 29.4648 295.518 30.458 296.823 30.458C298.128 30.458 299.185 29.4027 299.185 28.0991C299.185 26.7955 298.128 25.7402 296.823 25.7402ZM296.823 30.1476C295.767 30.1476 294.896 29.2786 294.896 28.0991C294.896 26.9817 295.767 26.1127 296.823 26.1127C297.88 26.1127 298.75 27.0438 298.75 28.1612C298.75 29.2786 297.942 30.1476 296.823 30.1476Z" fill="white"/>
<path d="M297.693 28.8443C297.631 28.4719 297.507 28.2236 297.258 28.2236C297.569 28.1615 297.755 27.9132 297.755 27.6028C297.755 27.3545 297.693 27.1683 297.507 27.0441C297.32 26.92 297.072 26.8579 296.699 26.8579C296.388 26.8579 296.202 26.8579 295.953 26.92V29.5892H296.388V28.3477H296.699C297.01 28.3477 297.196 28.4719 297.258 28.8443C297.32 29.2168 297.382 29.4651 297.445 29.5272H297.88C297.88 29.403 297.755 29.2789 297.693 28.8443ZM296.699 28.0374H296.388V27.1062C296.45 27.1062 296.575 27.1062 296.699 27.1062C297.196 27.1062 297.32 27.3545 297.32 27.6028C297.32 27.9132 297.072 28.0374 296.699 28.0374Z" fill="white"/>
<path d="M40.8318 32.5686H32.3174V41.88H28.9614V32.5686H20.3848V29.3407H28.9614V20.0293H32.3174V29.3407H40.8318V32.5686Z" fill="white"/>
<path d="M23.7409 44.0526H16.0965V35.6724H13.2377V44.0526H5.46909V46.5356H13.2377V54.7917H16.0965V46.5356H23.7409V44.0526Z" fill="white"/>
<path d="M56.369 14.691H48.6626V6.3728H45.8037V14.691H38.1594V17.2981H45.8037V25.5542H48.6626V17.2981H56.369V14.691Z" fill="white"/>
<path d="M37.165 53.1158H32.0067V47.3428H29.5207V53.1158H24.2381V55.3505H29.5207V61.2477H32.0067V55.3505H37.165V53.1158Z" fill="white"/>
<path d="M23.6787 14.6289H15.9101V6.3728H13.1134V14.6289H5.34479V17.1119H13.1134V25.5542H15.9101V17.1119H23.6787V14.6289Z" fill="white"/>
<path d="M62.2732 29.8375H57.1148V24.0645H54.5667V29.8375H49.3462V32.0722H54.5667V37.8453H57.1148V32.0722H62.2732V29.8375Z" fill="white"/>
<path d="M55.8719 44.0526H48.2275V35.6724H45.3687V44.0526H37.6622V46.5356H45.3687V54.7917H48.2275V46.5356H55.8719V44.0526Z" fill="white"/>
<path d="M36.7921 6.18662H31.6338V0.413574H29.7693V6.18662H24.611V7.92474H29.7693V13.5736H31.6338V7.92474H36.7921V6.18662Z" fill="white"/>
<path d="M12.1812 30.0859H7.02283V24.437H5.15836V30.0859H0V31.824H5.15836V37.4729H7.02283V31.824H12.1812V30.0859Z" fill="white"/>
</g>
<defs>
<clipPath id="clip0_452_1569">
<rect width="299.185" height="60.8342" fill="white" transform="translate(0 0.413574)"/>
</clipPath>
</defs>
</svg>
