<svg width="61" height="74" viewBox="0 0 61 74" fill="none" xmlns="http://www.w3.org/2000/svg">
<g opacity="0.2" clip-path="url(#clip0_516_4471)">
<path d="M59.1205 25.2408C54.1923 28.2871 51.1484 33.5094 51.1484 39.3119C51.1484 45.8397 55.062 51.7872 61.0049 54.2533C59.8453 58.0249 58.1059 61.5064 55.9317 64.6977C52.7428 69.1947 49.409 73.8367 44.4808 73.8367C39.5526 73.8367 38.1031 70.9354 32.3052 70.9354C26.6522 70.9354 24.623 73.9817 19.9846 73.9817C15.3463 73.9817 12.1574 69.7749 8.53374 64.5527C3.75046 57.2996 0.996449 48.886 0.851501 40.0372C0.851501 25.676 10.1282 17.9877 19.4048 17.9877C24.3331 17.9877 28.3916 21.1791 31.4355 21.1791C34.3345 21.1791 38.9728 17.8427 44.4808 17.8427C50.2787 17.6976 55.7867 20.4538 59.1205 25.2408ZM41.8717 11.75C44.3359 8.84879 45.6404 5.22224 45.7853 1.45062C45.7853 1.01544 45.7853 0.435187 45.6404 0C41.4369 0.435187 37.5233 2.46606 34.7693 5.65743C32.3052 8.41361 30.8557 11.8951 30.7108 15.6667C30.7108 16.1019 30.7108 16.5371 30.8557 16.9723C31.1456 16.9723 31.5805 17.1173 31.8703 17.1173C35.7839 16.8272 39.4076 14.7963 41.8717 11.75Z" fill="white"/>
</g>
<defs>
<clipPath id="clip0_516_4471">
<rect width="60.1534" height="73.9817" fill="white" transform="translate(0.851501)"/>
</clipPath>
</defs>
</svg>
