<svg width="24" height="28" viewBox="0 0 24 28" fill="none" xmlns="http://www.w3.org/2000/svg">
<path d="M18.6667 0.666504C17.9333 0.666504 17.3333 1.2665 17.3333 1.99984V3.33317H6.66667V1.99984C6.66667 1.2665 6.06667 0.666504 5.33333 0.666504C4.6 0.666504 4 1.2665 4 1.99984V3.33317H2.66667C1.18667 3.33317 0.0133333 4.53317 0.0133333 5.99984L0 24.6665C0 26.1332 1.18667 27.3332 2.66667 27.3332H21.3333C22.8 27.3332 24 26.1332 24 24.6665V5.99984C24 4.53317 22.8 3.33317 21.3333 3.33317H20V1.99984C20 1.2665 19.4 0.666504 18.6667 0.666504ZM21.3333 24.6665H2.66667V11.3332H21.3333V24.6665ZM10.6667 15.3332C10.6667 14.5998 11.2667 13.9998 12 13.9998C12.7333 13.9998 13.3333 14.5998 13.3333 15.3332C13.3333 16.0665 12.7333 16.6665 12 16.6665C11.2667 16.6665 10.6667 16.0665 10.6667 15.3332ZM5.33333 15.3332C5.33333 14.5998 5.93333 13.9998 6.66667 13.9998C7.4 13.9998 8 14.5998 8 15.3332C8 16.0665 7.4 16.6665 6.66667 16.6665C5.93333 16.6665 5.33333 16.0665 5.33333 15.3332ZM16 15.3332C16 14.5998 16.6 13.9998 17.3333 13.9998C18.0667 13.9998 18.6667 14.5998 18.6667 15.3332C18.6667 16.0665 18.0667 16.6665 17.3333 16.6665C16.6 16.6665 16 16.0665 16 15.3332ZM10.6667 20.6665C10.6667 19.9332 11.2667 19.3332 12 19.3332C12.7333 19.3332 13.3333 19.9332 13.3333 20.6665C13.3333 21.3998 12.7333 21.9998 12 21.9998C11.2667 21.9998 10.6667 21.3998 10.6667 20.6665ZM5.33333 20.6665C5.33333 19.9332 5.93333 19.3332 6.66667 19.3332C7.4 19.3332 8 19.9332 8 20.6665C8 21.3998 7.4 21.9998 6.66667 21.9998C5.93333 21.9998 5.33333 21.3998 5.33333 20.6665ZM16 20.6665C16 19.9332 16.6 19.3332 17.3333 19.3332C18.0667 19.3332 18.6667 19.9332 18.6667 20.6665C18.6667 21.3998 18.0667 21.9998 17.3333 21.9998C16.6 21.9998 16 21.3998 16 20.6665Z" fill="white"/>
</svg>
