<svg width="225" height="72" viewBox="0 0 225 72" fill="none" xmlns="http://www.w3.org/2000/svg">
<g opacity="0.2" clip-path="url(#clip0_516_4454)">
<path d="M28.1089 25.893V33.4263H46.2593C45.7774 37.5937 44.3318 40.7993 42.0831 42.883C39.5131 45.4475 35.3369 48.3326 28.1089 48.3326C17.026 48.3326 8.35237 39.3568 8.35237 28.2972C8.35237 17.2377 16.8654 8.26183 28.1089 8.26183C34.052 8.26183 38.5494 10.6661 41.7618 13.7115L47.0624 8.42211C42.565 4.09446 36.4613 0.728516 28.1089 0.728516C12.8498 0.728516 0 13.0703 0 28.2972C0 43.5241 12.8498 55.866 28.1089 55.866C36.3007 55.866 42.565 53.1411 47.3836 48.1724C52.3629 43.2036 53.9692 36.1511 53.9692 30.5412C53.9692 28.7781 53.8085 27.1752 53.6479 25.893H28.1089Z" fill="white"/>
<path d="M76.4563 19.6421C66.6583 19.6421 58.4666 27.1754 58.4666 37.4335C58.4666 47.6917 66.4977 55.225 76.4563 55.225C86.4149 55.225 94.446 47.8519 94.446 37.5938C94.446 27.1754 86.4149 19.6421 76.4563 19.6421ZM76.4563 48.3328C70.9951 48.3328 66.3371 43.8449 66.3371 37.5938C66.3371 31.1825 70.9951 26.8548 76.4563 26.8548C81.9175 26.8548 86.5755 31.1825 86.5755 37.5938C86.5755 43.8449 81.9175 48.3328 76.4563 48.3328Z" fill="white"/>
<path d="M164.317 23.6492H163.996C162.229 21.5655 158.856 19.6421 154.519 19.6421C145.524 19.6421 137.814 27.3357 137.814 37.4335C137.814 47.3711 145.524 55.225 154.519 55.225C158.856 55.225 162.229 53.3016 163.996 51.2179H164.317V53.7824C164.317 60.5143 160.623 64.2008 154.84 64.2008C150.021 64.2008 147.13 60.8349 145.845 57.7895L139.099 60.6746C141.027 65.3228 146.327 71.2533 155.001 71.2533C164.156 71.2533 172.027 65.8037 172.027 52.6604V20.6038H164.638V23.6492H164.317ZM155.322 48.3328C149.861 48.3328 145.845 43.6846 145.845 37.5938C145.845 31.3428 150.021 26.8548 155.322 26.8548C160.623 26.8548 164.799 31.503 164.799 37.7541C164.959 43.8449 160.783 48.3328 155.322 48.3328Z" fill="white"/>
<path d="M116.451 19.6421C106.653 19.6421 98.4616 27.1754 98.4616 37.4335C98.4616 47.6917 106.493 55.225 116.451 55.225C126.41 55.225 134.441 47.8519 134.441 37.5938C134.441 27.1754 126.41 19.6421 116.451 19.6421ZM116.451 48.3328C110.99 48.3328 106.332 43.8449 106.332 37.5938C106.332 31.1825 110.99 26.8548 116.451 26.8548C121.912 26.8548 126.571 31.1825 126.571 37.5938C126.571 43.8449 121.912 48.3328 116.451 48.3328Z" fill="white"/>
<path d="M177.97 1.53027H185.68V55.3854H177.97V1.53027Z" fill="white"/>
<path d="M209.452 48.3328C205.436 48.3328 202.706 46.5697 200.778 42.8832L224.711 33.1059L223.908 31.0222C222.462 27.0151 217.804 19.6421 208.649 19.6421C199.493 19.6421 191.783 26.8548 191.783 37.4335C191.783 47.3711 199.332 55.225 209.452 55.225C217.643 55.225 222.302 50.2562 224.39 47.3711L218.286 43.364C216.198 46.4094 213.467 48.3328 209.452 48.3328ZM208.97 26.374C212.182 26.374 214.913 27.9768 215.716 30.2208L199.654 36.9527C199.493 29.5797 204.954 26.374 208.97 26.374Z" fill="white"/>
</g>
<defs>
<clipPath id="clip0_516_4454">
<rect width="224.711" height="70.5246" fill="white" transform="translate(0 0.728516)"/>
</clipPath>
</defs>
</svg>
