<svg width="86" height="68" viewBox="0 0 86 68" fill="none" xmlns="http://www.w3.org/2000/svg">
<g opacity="0.2" clip-path="url(#clip0_516_4478)">
<path d="M54.7087 5.20114C61.2001 5.20114 66.5245 32.7142 66.5245 66.5763H75.9334C75.9334 30.0869 66.4516 0.45752 54.7087 0.45752C48.0715 0.45752 42.0906 9.36094 38.225 23.2269C34.2864 9.36094 28.3785 0.45752 21.6683 0.45752C9.92546 0.45752 0.443665 30.0869 0.443665 66.5763H9.85252C9.85252 32.6412 15.104 5.20114 21.6683 5.20114C28.1597 5.20114 33.4841 30.5978 33.4841 61.8327H42.8929C42.8929 30.5248 48.2173 5.20114 54.7087 5.20114Z" fill="white"/>
<path d="M81.5495 63.9489H82.2059C82.7165 63.9489 83.227 63.9489 83.227 63.2921C83.227 62.7812 82.7894 62.7083 82.3518 62.7083H81.5495V63.9489ZM80.966 62.2704H82.4247C83.3 62.2704 83.7376 62.6353 83.7376 63.3651C83.7376 64.0949 83.3 64.3868 82.7165 64.3868L83.8105 66.0653H83.1541L82.133 64.3868H81.4766V66.1383H80.8931V62.2704H80.966ZM82.2059 67.014C83.7376 67.014 84.9046 65.7734 84.9046 64.1678C84.9046 62.5623 83.7376 61.3946 82.2059 61.3946C80.6743 61.3946 79.5073 62.6353 79.5073 64.1678C79.5073 65.7734 80.6743 67.014 82.2059 67.014ZM82.2059 60.8838C84.0293 60.8838 85.4881 62.2704 85.4881 64.1678C85.4881 66.0653 83.9564 67.4519 82.2059 67.4519C80.3825 67.4519 78.9238 66.0653 78.9238 64.1678C78.9238 62.3434 80.3825 60.8838 82.2059 60.8838Z" fill="white"/>
</g>
<defs>
<clipPath id="clip0_516_4478">
<rect width="85.0444" height="67.0676" fill="white" transform="translate(0.443665 0.45752)"/>
</clipPath>
</defs>
</svg>
