<svg width="91" height="54" viewBox="0 0 91 54" fill="none" xmlns="http://www.w3.org/2000/svg">
<g opacity="0.4" clip-path="url(#clip0_452_1700)">
<path d="M26.1858 19.4656C26.1858 20.5815 26.3357 21.4743 26.4855 22.1439C26.7103 22.8134 27.01 23.483 27.4596 24.3014C27.6095 24.5245 27.6844 24.7477 27.6844 24.9709C27.6844 25.2685 27.5345 25.5661 27.085 25.8637L25.2117 27.1284C24.912 27.2772 24.6872 27.426 24.4624 27.426C24.1627 27.426 23.863 27.2772 23.5633 26.9796C23.1137 26.5332 22.814 26.0869 22.5142 25.5661C22.2145 25.0453 21.9148 24.5245 21.6151 23.7806C19.2923 26.5332 16.37 27.8724 12.7734 27.8724C10.2258 27.8724 8.27761 27.1284 6.77902 25.7149C5.28042 24.3014 4.53113 22.3671 4.53113 19.9864C4.53113 17.4569 5.43028 15.3738 7.2286 13.8859C9.02691 12.3979 11.4996 11.5796 14.5717 11.5796C15.6207 11.5796 16.6697 11.654 17.7187 11.8028C18.8427 11.9516 19.9666 12.1748 21.1655 12.4723V10.3149C21.1655 8.08296 20.7159 6.44624 19.7418 5.55349C18.7678 4.66073 17.1942 4.21435 14.8714 4.21435C13.8224 4.21435 12.7734 4.36315 11.6494 4.58634C10.5255 4.88392 9.47648 5.18151 8.42747 5.62788C7.97789 5.77668 7.60324 5.92547 7.37845 5.99987C7.15367 5.99987 7.00381 6.07426 6.92888 6.07426C6.4793 6.07426 6.32944 5.77668 6.32944 5.18151V3.69358C6.32944 3.2472 6.40437 2.87522 6.55423 2.65203C6.70409 2.42884 7.00381 2.20566 7.37845 2.05686C8.42747 1.53609 9.70127 1.08971 11.1249 0.717729C12.6235 0.345747 14.1221 0.122559 15.7706 0.122559C19.3672 0.122559 21.9148 0.940918 23.6382 2.50324C25.2866 4.13996 26.1109 6.52064 26.1109 9.86847L26.1858 19.4656ZM14.0472 24.0038C15.0213 24.0038 16.0703 23.855 17.1193 23.483C18.1683 23.111 19.1424 22.4414 19.9666 21.5487C20.4162 20.9535 20.7909 20.3584 21.0156 19.6144C21.1655 18.8704 21.3154 18.0521 21.3154 17.0105V15.7458C20.4162 15.5226 19.5171 15.3738 18.543 15.225C17.5689 15.0762 16.6697 15.0762 15.6956 15.0762C13.6725 15.0762 12.2489 15.4482 11.1999 16.2666C10.2258 17.0849 9.70127 18.2009 9.70127 19.6888C9.70127 21.1023 10.0759 22.1439 10.8252 22.8134C11.5745 23.7062 12.6235 24.0038 14.0472 24.0038ZM38.0996 27.2772C37.5751 27.2772 37.2005 27.2028 36.9757 26.9796C36.7509 26.8308 36.5261 26.3845 36.3762 25.7893L29.3328 2.72643C29.183 2.13126 29.0331 1.75928 29.0331 1.53609C29.0331 1.08971 29.2579 0.792125 29.7824 0.792125H32.7047C33.3041 0.792125 33.6788 0.866522 33.9036 1.08971C34.1283 1.2385 34.3531 1.68488 34.503 2.28005L39.5233 21.9951L44.1689 2.28005C44.3188 1.68488 44.4686 1.3129 44.7683 1.08971C44.9931 0.940918 45.4427 0.792125 45.9672 0.792125H48.365C48.9644 0.792125 49.3391 0.866522 49.5638 1.08971C49.7886 1.2385 50.0134 1.68488 50.1633 2.28005L54.8839 22.2183L60.054 2.28005C60.2039 1.68488 60.4286 1.3129 60.6534 1.08971C60.8782 0.940918 61.2529 0.792125 61.8523 0.792125H64.6247C65.0743 0.792125 65.374 1.01531 65.374 1.53609C65.374 1.68488 65.374 1.83367 65.2991 1.98247C65.2991 2.13126 65.2241 2.42884 65.0743 2.72643L57.8061 25.7893C57.6562 26.3845 57.4315 26.7564 57.2067 26.9796C56.9819 27.1284 56.6072 27.2772 56.0827 27.2772H53.5351C52.9357 27.2772 52.561 27.2028 52.3362 26.9796C52.1115 26.7564 51.8867 26.3845 51.7368 25.7893L47.0912 6.59504L42.4455 25.7893C42.2957 26.3845 42.1458 26.7564 41.8461 26.9796C41.6213 27.2028 41.1717 27.2772 40.6472 27.2772H38.0996ZM76.6884 28.0212C75.1149 28.0212 73.5413 27.8724 72.0427 27.5004C70.5441 27.1284 69.3453 26.7564 68.596 26.3101C68.1464 26.0125 67.7718 25.7149 67.6968 25.4917C67.6219 25.2685 67.472 24.8965 67.472 24.6733V23.1854C67.472 22.5902 67.6968 22.2927 68.1464 22.2927C68.2963 22.2927 68.521 22.2927 68.6709 22.3671C68.8208 22.4414 69.1205 22.5158 69.4202 22.6646C70.4692 23.111 71.5182 23.483 72.7171 23.7062C73.916 23.9294 75.1149 24.0782 76.3137 24.0782C78.187 24.0782 79.6856 23.7806 80.6597 23.111C81.7087 22.4414 82.2332 21.4743 82.2332 20.284C82.2332 19.4656 81.9335 18.796 81.4089 18.2009C80.8844 17.6057 79.8354 17.1593 78.4118 16.6385L74.0658 15.2994C71.8929 14.6298 70.2444 13.5883 69.2703 12.2492C68.2963 10.91 67.7718 9.49649 67.7718 7.93417C67.7718 6.66943 68.0715 5.55349 68.596 4.66073C69.1205 3.76798 69.8698 2.87522 70.7689 2.20566C71.6681 1.53609 72.7171 1.01531 73.916 0.643333C75.1149 0.271351 76.3887 0.122559 77.6625 0.122559C78.3368 0.122559 79.0112 0.122559 79.6856 0.271351C80.3599 0.345748 81.0343 0.49454 81.6337 0.568936C82.2332 0.717729 82.8326 0.866522 83.3571 1.01531C83.8816 1.16411 84.3312 1.3873 84.6309 1.53609C85.0805 1.75928 85.3802 1.98247 85.5301 2.28005C85.6799 2.50324 85.8298 2.87522 85.8298 3.2472V4.66073C85.8298 5.2559 85.605 5.62788 85.1554 5.62788C84.9306 5.62788 84.556 5.47909 84.0315 5.2559C82.3081 4.51194 80.4349 4.06556 78.2619 4.06556C76.5385 4.06556 75.1898 4.36315 74.2906 4.88392C73.3915 5.4047 72.867 6.29745 72.867 7.56219C72.867 8.38055 73.1667 9.12451 73.7661 9.64528C74.3656 10.2405 75.4895 10.7612 77.063 11.282L81.334 12.6211C83.507 13.2907 85.0805 14.2579 85.9797 15.4482C86.8788 16.6385 87.3284 18.0521 87.3284 19.6144C87.3284 20.8791 87.0287 22.0695 86.5791 23.0366C86.0546 24.0782 85.3053 24.9709 84.4061 25.6405C83.507 26.3845 82.383 26.9052 81.1092 27.2772C79.6106 27.8724 78.187 28.0212 76.6884 28.0212Z" fill="white"/>
<path fill-rule="evenodd" clip-rule="evenodd" d="M82.383 42.5282C72.4923 49.7446 58.1058 53.6132 45.8173 53.6132C28.5086 53.6132 12.9232 47.2896 1.15925 36.7253C0.260092 35.9069 1.08432 34.791 2.20826 35.3861C14.9463 42.7514 30.6066 47.1408 46.8663 47.1408C57.8061 47.1408 69.8697 44.9089 80.9593 40.2219C82.5329 39.5523 83.9565 41.3378 82.383 42.5282Z" fill="white"/>
<path fill-rule="evenodd" clip-rule="evenodd" d="M86.4293 37.9157C85.1555 36.2789 78.1121 37.1717 74.8901 37.5437C73.916 37.6925 73.7661 36.7997 74.6653 36.2045C80.285 32.2615 89.5763 33.3775 90.6253 34.7166C91.6743 36.0557 90.3256 45.2809 85.0805 49.6703C84.2563 50.3398 83.507 49.9679 83.8817 49.0751C85.0805 46.0993 87.7031 39.478 86.4293 37.9157Z" fill="white"/>
<path d="M26.1858 19.4656C26.1858 20.5815 26.3357 21.4743 26.4855 22.1439C26.7103 22.8134 27.01 23.483 27.4596 24.3014C27.6095 24.5245 27.6844 24.7477 27.6844 24.9709C27.6844 25.2685 27.5345 25.5661 27.085 25.8637L25.2117 27.1284C24.912 27.2772 24.6872 27.426 24.4624 27.426C24.1627 27.426 23.863 27.2772 23.5633 26.9796C23.1137 26.5332 22.814 26.0869 22.5142 25.5661C22.2145 25.0453 21.9148 24.5245 21.6151 23.7806C19.2923 26.5332 16.37 27.8724 12.7734 27.8724C10.2258 27.8724 8.27761 27.1284 6.77902 25.7149C5.28042 24.3014 4.53113 22.3671 4.53113 19.9864C4.53113 17.4569 5.43028 15.3738 7.2286 13.8859C9.02691 12.3979 11.4996 11.5796 14.5717 11.5796C15.6207 11.5796 16.6697 11.654 17.7187 11.8028C18.8427 11.9516 19.9666 12.1748 21.1655 12.4723V10.3149C21.1655 8.08296 20.7159 6.44624 19.7418 5.55349C18.7678 4.66073 17.1942 4.21435 14.8714 4.21435C13.8224 4.21435 12.7734 4.36315 11.6494 4.58634C10.5255 4.88392 9.47648 5.18151 8.42747 5.62788C7.97789 5.77668 7.60324 5.92547 7.37845 5.99987C7.15367 5.99987 7.00381 6.07426 6.92888 6.07426C6.4793 6.07426 6.32944 5.77668 6.32944 5.18151V3.69358C6.32944 3.2472 6.40437 2.87522 6.55423 2.65203C6.70409 2.42884 7.00381 2.20566 7.37845 2.05686C8.42747 1.53609 9.70127 1.08971 11.1249 0.717729C12.6235 0.345747 14.1221 0.122559 15.7706 0.122559C19.3672 0.122559 21.9148 0.940918 23.6382 2.50324C25.2866 4.13996 26.1109 6.52064 26.1109 9.86847L26.1858 19.4656ZM14.0472 24.0038C15.0213 24.0038 16.0703 23.855 17.1193 23.483C18.1683 23.111 19.1424 22.4414 19.9666 21.5487C20.4162 20.9535 20.7909 20.3584 21.0156 19.6144C21.1655 18.8704 21.3154 18.0521 21.3154 17.0105V15.7458C20.4162 15.5226 19.5171 15.3738 18.543 15.225C17.5689 15.0762 16.6697 15.0762 15.6956 15.0762C13.6725 15.0762 12.2489 15.4482 11.1999 16.2666C10.2258 17.0849 9.70127 18.2009 9.70127 19.6888C9.70127 21.1023 10.0759 22.1439 10.8252 22.8134C11.5745 23.7062 12.6235 24.0038 14.0472 24.0038ZM38.0996 27.2772C37.5751 27.2772 37.2005 27.2028 36.9757 26.9796C36.7509 26.8308 36.5261 26.3845 36.3762 25.7893L29.3328 2.72643C29.183 2.13126 29.0331 1.75928 29.0331 1.53609C29.0331 1.08971 29.2579 0.792125 29.7824 0.792125H32.7047C33.3041 0.792125 33.6788 0.866522 33.9036 1.08971C34.1283 1.2385 34.3531 1.68488 34.503 2.28005L39.5233 21.9951L44.1689 2.28005C44.3188 1.68488 44.4686 1.3129 44.7683 1.08971C44.9931 0.940918 45.4427 0.792125 45.9672 0.792125H48.365C48.9644 0.792125 49.3391 0.866522 49.5638 1.08971C49.7886 1.2385 50.0134 1.68488 50.1633 2.28005L54.8839 22.2183L60.054 2.28005C60.2039 1.68488 60.4286 1.3129 60.6534 1.08971C60.8782 0.940918 61.2529 0.792125 61.8523 0.792125H64.6247C65.0743 0.792125 65.374 1.01531 65.374 1.53609C65.374 1.68488 65.374 1.83367 65.2991 1.98247C65.2991 2.13126 65.2241 2.42884 65.0743 2.72643L57.8061 25.7893C57.6562 26.3845 57.4315 26.7564 57.2067 26.9796C56.9819 27.1284 56.6072 27.2772 56.0827 27.2772H53.5351C52.9357 27.2772 52.561 27.2028 52.3362 26.9796C52.1115 26.7564 51.8867 26.3845 51.7368 25.7893L47.0912 6.59504L42.4455 25.7893C42.2957 26.3845 42.1458 26.7564 41.8461 26.9796C41.6213 27.2028 41.1717 27.2772 40.6472 27.2772H38.0996ZM76.6884 28.0212C75.1149 28.0212 73.5413 27.8724 72.0427 27.5004C70.5441 27.1284 69.3453 26.7564 68.596 26.3101C68.1464 26.0125 67.7718 25.7149 67.6968 25.4917C67.6219 25.2685 67.472 24.8965 67.472 24.6733V23.1854C67.472 22.5902 67.6968 22.2927 68.1464 22.2927C68.2963 22.2927 68.521 22.2927 68.6709 22.3671C68.8208 22.4414 69.1205 22.5158 69.4202 22.6646C70.4692 23.111 71.5182 23.483 72.7171 23.7062C73.916 23.9294 75.1149 24.0782 76.3137 24.0782C78.187 24.0782 79.6856 23.7806 80.6597 23.111C81.7087 22.4414 82.2332 21.4743 82.2332 20.284C82.2332 19.4656 81.9335 18.796 81.4089 18.2009C80.8844 17.6057 79.8354 17.1593 78.4118 16.6385L74.0658 15.2994C71.8929 14.6298 70.2444 13.5883 69.2703 12.2492C68.2963 10.91 67.7718 9.49649 67.7718 7.93417C67.7718 6.66943 68.0715 5.55349 68.596 4.66073C69.1205 3.76798 69.8698 2.87522 70.7689 2.20566C71.6681 1.53609 72.7171 1.01531 73.916 0.643333C75.1149 0.271351 76.3887 0.122559 77.6625 0.122559C78.3368 0.122559 79.0112 0.122559 79.6856 0.271351C80.3599 0.345748 81.0343 0.49454 81.6337 0.568936C82.2332 0.717729 82.8326 0.866522 83.3571 1.01531C83.8816 1.16411 84.3312 1.3873 84.6309 1.53609C85.0805 1.75928 85.3802 1.98247 85.5301 2.28005C85.6799 2.50324 85.8298 2.87522 85.8298 3.2472V4.66073C85.8298 5.2559 85.605 5.62788 85.1554 5.62788C84.9306 5.62788 84.556 5.47909 84.0315 5.2559C82.3081 4.51194 80.4349 4.06556 78.2619 4.06556C76.5385 4.06556 75.1898 4.36315 74.2906 4.88392C73.3915 5.4047 72.867 6.29745 72.867 7.56219C72.867 8.38055 73.1667 9.12451 73.7661 9.64528C74.3656 10.2405 75.4895 10.7612 77.063 11.282L81.334 12.6211C83.507 13.2907 85.0805 14.2579 85.9797 15.4482C86.8788 16.6385 87.3284 18.0521 87.3284 19.6144C87.3284 20.8791 87.0287 22.0695 86.5791 23.0366C86.0546 24.0782 85.3053 24.9709 84.4061 25.6405C83.507 26.3845 82.383 26.9052 81.1092 27.2772C79.6106 27.8724 78.187 28.0212 76.6884 28.0212Z" fill="white"/>
<path fill-rule="evenodd" clip-rule="evenodd" d="M82.383 42.5282C72.4923 49.7446 58.1058 53.6132 45.8173 53.6132C28.5086 53.6132 12.9232 47.2896 1.15925 36.7253C0.260092 35.9069 1.08432 34.791 2.20826 35.3861C14.9463 42.7514 30.6066 47.1408 46.8663 47.1408C57.8061 47.1408 69.8697 44.9089 80.9593 40.2219C82.5329 39.5523 83.9565 41.3378 82.383 42.5282Z" fill="white"/>
<path fill-rule="evenodd" clip-rule="evenodd" d="M86.4293 37.9157C85.1555 36.2789 78.1121 37.1717 74.8901 37.5437C73.916 37.6925 73.7661 36.7997 74.6653 36.2045C80.285 32.2615 89.5763 33.3775 90.6253 34.7166C91.6743 36.0557 90.3256 45.2809 85.0805 49.6703C84.2563 50.3398 83.507 49.9679 83.8817 49.0751C85.0805 46.0993 87.7031 39.478 86.4293 37.9157Z" fill="white"/>
</g>
<defs>
<clipPath id="clip0_452_1700">
<rect width="90.2153" height="53.5653" fill="white" transform="translate(0.784668 0.0480957)"/>
</clipPath>
</defs>
</svg>
