<svg width="310" height="71" viewBox="0 0 310 71" fill="none" xmlns="http://www.w3.org/2000/svg">
<g opacity="0.4">
<path d="M38.5363 65.5174V34.1182L12.101 18.3204L35.6174 4.26685L61.888 19.9664V51.5622L38.5363 65.5174Z" fill="white"/>
<path d="M9.34668 51.5621V23.4553L18.1036 28.6885V46.1324L32.6984 54.8544V65.5173L9.34668 51.5621Z" fill="white"/>
<path fill-rule="evenodd" clip-rule="evenodd" d="M103.253 15.4129V47.2723H115.603V53.2056H96.9156V15.4129H103.253ZM137.73 26.8178H143.878V53.2056H137.73V50.4422C135.21 52.7901 132.499 53.9641 129.598 53.9641C125.935 53.9641 122.906 52.6457 120.513 50.0087C118.137 47.3174 116.949 43.958 116.949 39.9305C116.949 35.975 118.137 32.6787 120.513 30.0418C122.888 27.4047 125.862 26.0863 129.434 26.0863C132.517 26.0863 135.283 27.3506 137.73 29.8792V26.8178ZM123.205 39.9305C123.205 42.459 123.885 44.5179 125.245 46.1074C126.642 47.7148 128.401 48.5187 130.522 48.5187C132.789 48.5187 134.62 47.7419 136.017 46.1888C137.413 44.5813 138.111 42.5404 138.111 40.0659C138.111 37.5915 137.413 35.5506 136.017 33.9431C134.62 32.3717 132.807 31.5861 130.577 31.5861C128.473 31.5861 126.714 32.3807 125.3 33.9701C123.904 35.5776 123.205 37.5645 123.205 39.9305ZM155.479 12.5056V29.8792C157.927 27.3506 160.702 26.0863 163.803 26.0863C167.375 26.0863 170.349 27.4138 172.724 30.0688C175.1 32.7057 176.288 35.9931 176.288 39.9305C176.288 43.9943 175.091 47.3537 172.697 50.0087C170.321 52.6457 167.32 53.9641 163.694 53.9641C160.629 53.9641 157.891 52.7901 155.479 50.4422V53.2056H149.359V12.5056H155.479ZM170.031 40.2014C170.031 37.6726 169.342 35.6136 167.964 34.0242C166.568 32.3987 164.818 31.5861 162.715 31.5861C160.466 31.5861 158.635 32.3717 157.22 33.9431C155.824 35.4962 155.126 37.5191 155.126 40.0116C155.126 42.5764 155.815 44.6264 157.193 46.1617C158.571 47.7329 160.384 48.5187 162.633 48.5187C164.754 48.5187 166.513 47.7329 167.91 46.1617C169.324 44.5723 170.031 42.5854 170.031 40.2014ZM204.644 41.4475H185.659C185.822 43.6149 186.529 45.3398 187.78 46.6223C189.031 47.8864 190.636 48.5187 192.595 48.5187C194.118 48.5187 195.378 48.1573 196.376 47.4349C197.355 46.7124 198.47 45.3759 199.721 43.4254L204.889 46.2969C204.092 47.6517 203.248 48.812 202.36 49.7784C201.471 50.7446 200.519 51.5394 199.504 52.1625C198.488 52.7855 197.391 53.2417 196.212 53.5307C195.034 53.8196 193.755 53.9641 192.377 53.9641C188.424 53.9641 185.251 52.6997 182.857 50.1712C180.463 47.6247 179.266 44.247 179.266 40.0389C179.266 35.8666 180.427 32.4891 182.748 29.9063C185.087 27.3596 188.188 26.0863 192.051 26.0863C195.949 26.0863 199.032 27.3235 201.299 29.7979C203.547 32.2542 204.672 35.6587 204.672 40.0116L204.644 41.4475ZM198.361 36.4626C197.509 33.2116 195.451 31.5861 192.187 31.5861C191.443 31.5861 190.745 31.6989 190.092 31.9245C189.44 32.1504 188.846 32.4755 188.31 32.9C187.776 33.3244 187.318 33.8347 186.937 34.4307C186.556 35.0267 186.266 35.7041 186.067 36.4626H198.361ZM215.212 12.5056V53.2056H209.092V12.5056H215.212ZM226.841 12.5056V29.8792C229.289 27.3506 232.063 26.0863 235.164 26.0863C238.737 26.0863 241.711 27.4138 244.086 30.0688C246.462 32.7057 247.649 35.9931 247.649 39.9305C247.649 43.9943 246.452 47.3537 244.059 50.0087C241.683 52.6457 238.682 53.9641 235.055 53.9641C231.991 53.9641 229.253 52.7901 226.841 50.4422V53.2056H220.721V12.5056H226.841ZM241.393 40.2014C241.393 37.6726 240.704 35.6136 239.326 34.0242C237.93 32.3987 236.18 31.5861 234.076 31.5861C231.828 31.5861 229.996 32.3717 228.582 33.9431C227.185 35.4962 226.487 37.5191 226.487 40.0116C226.487 42.5764 227.176 44.6264 228.555 46.1617C229.933 47.7329 231.746 48.5187 233.995 48.5187C236.116 48.5187 237.875 47.7329 239.272 46.1617C240.686 44.5723 241.393 42.5854 241.393 40.2014ZM250.628 39.822C250.628 36.0111 251.997 32.7691 254.735 30.0958C257.474 27.4228 260.81 26.0863 264.745 26.0863C268.698 26.0863 272.053 27.4318 274.809 30.1232C277.53 32.8142 278.889 36.1195 278.889 40.0389C278.889 43.9943 277.52 47.3084 274.782 49.9817C272.026 52.6366 268.644 53.9641 264.636 53.9641C260.665 53.9641 257.338 52.6096 254.654 49.9003C251.97 47.2273 250.628 43.8678 250.628 39.822ZM256.884 39.9305C256.884 42.5674 257.592 44.6534 259.006 46.1888C260.456 47.7419 262.37 48.5187 264.745 48.5187C267.139 48.5187 269.052 47.7509 270.485 46.2158C271.917 44.6804 272.634 42.6305 272.634 40.0659C272.634 37.5011 271.917 35.4511 270.485 33.9161C269.034 32.3627 267.121 31.5861 264.745 31.5861C262.406 31.5861 260.511 32.3627 259.06 33.9161C257.61 35.4692 256.884 37.474 256.884 39.9305ZM290.001 38.928L280.481 26.8178H287.771L293.674 34.5121L299.684 26.8178H307.192L297.399 38.928L308.742 53.2056H301.453L293.674 43.3439L285.703 53.2056H278.223L290.001 38.928Z" fill="white"/>
</g>
</svg>
