<svg width="57" height="68" viewBox="0 0 57 68" fill="none" xmlns="http://www.w3.org/2000/svg">
<g opacity="0.4" clip-path="url(#clip0_452_1600)">
<path d="M48.085 19.6669C59.1619 30.6437 59.1619 48.2525 48.085 59.3056C37.2389 70.2824 19.3927 70.2824 8.3158 59.3056C-2.76111 48.3287 -2.76111 30.6437 8.3158 19.6669L28.1619 0V9.83344L26.3158 11.6629L13.162 24.6979C4.85427 32.7781 4.85427 46.0418 13.162 54.2745C21.3158 62.5071 34.7004 62.5071 43.0081 54.2745C51.3158 46.1943 51.3158 32.9306 43.0081 24.6979L48.085 19.6669ZM38.1619 18.4472C36.1227 18.4472 34.4696 16.8091 34.4696 14.7883C34.4696 12.7675 36.1227 11.1293 38.1619 11.1293C40.2011 11.1293 41.8542 12.7675 41.8542 14.7883C41.8542 16.8091 40.2011 18.4472 38.1619 18.4472Z" fill="white"/>
</g>
<defs>
<clipPath id="clip0_452_1600">
<rect width="56.3846" height="67.6615" fill="white" transform="translate(0.00811768)"/>
</clipPath>
</defs>
</svg>
