<svg width="34" height="34" viewBox="0 0 34 34" fill="none" xmlns="http://www.w3.org/2000/svg">
<path d="M18.7134 0.333496C20.5884 0.338496 21.54 0.348496 22.3617 0.371829L22.685 0.383496C23.0584 0.396829 23.4267 0.413496 23.8717 0.433496C25.645 0.516829 26.855 0.79683 27.9167 1.2085C29.0167 1.63183 29.9434 2.20516 30.87 3.13016C31.7175 3.96332 32.3733 4.97114 32.7917 6.0835C33.2034 7.14516 33.4834 8.35516 33.5667 10.1302C33.5867 10.5735 33.6034 10.9418 33.6167 11.3168L33.6267 11.6402C33.6517 12.4602 33.6617 13.4118 33.665 15.2868L33.6667 16.5302V18.7135C33.6708 19.9292 33.658 21.1448 33.6284 22.3602L33.6184 22.6835C33.605 23.0585 33.5884 23.4268 33.5684 23.8702C33.485 25.6452 33.2017 26.8535 32.7917 27.9168C32.3745 29.0298 31.7186 30.0379 30.87 30.8702C30.0366 31.7174 29.0289 32.3731 27.9167 32.7918C26.855 33.2035 25.645 33.4835 23.8717 33.5668C23.4762 33.5855 23.0807 33.6021 22.685 33.6168L22.3617 33.6268C21.54 33.6502 20.5884 33.6618 18.7134 33.6652L17.47 33.6668H15.2884C14.0721 33.671 12.8559 33.6582 11.64 33.6285L11.3167 33.6185C10.921 33.6035 10.5255 33.5863 10.13 33.5668C8.35669 33.4835 7.14669 33.2035 6.08336 32.7918C4.97114 32.3741 3.96372 31.7182 3.13169 30.8702C2.28343 30.0373 1.62707 29.0294 1.20836 27.9168C0.796693 26.8552 0.516692 25.6452 0.433359 23.8702C0.41479 23.4747 0.398124 23.0791 0.383359 22.6835L0.375026 22.3602C0.344313 21.1449 0.330422 19.9292 0.333359 18.7135V15.2868C0.328708 14.0712 0.340931 12.8555 0.370026 11.6402L0.381693 11.3168C0.395026 10.9418 0.411692 10.5735 0.431692 10.1302C0.515026 8.35516 0.795026 7.14683 1.20669 6.0835C1.62522 4.97 2.28289 3.96187 3.13336 3.13016C3.96518 2.28262 4.97193 1.62681 6.08336 1.2085C7.14669 0.79683 8.35503 0.516829 10.13 0.433496C10.5734 0.413496 10.9434 0.396829 11.3167 0.383496L11.64 0.373496C12.8553 0.343884 14.071 0.331105 15.2867 0.335163L18.7134 0.333496ZM17 8.66683C14.7899 8.66683 12.6703 9.5448 11.1075 11.1076C9.54467 12.6704 8.66669 14.79 8.66669 17.0002C8.66669 19.2103 9.54467 21.3299 11.1075 22.8927C12.6703 24.4555 14.7899 25.3335 17 25.3335C19.2102 25.3335 21.3298 24.4555 22.8926 22.8927C24.4554 21.3299 25.3334 19.2103 25.3334 17.0002C25.3334 14.79 24.4554 12.6704 22.8926 11.1076C21.3298 9.5448 19.2102 8.66683 17 8.66683ZM17 12.0002C17.6566 12.0001 18.3068 12.1293 18.9135 12.3804C19.5202 12.6316 20.0714 12.9998 20.5358 13.464C21.0002 13.9283 21.3686 14.4794 21.6199 15.086C21.8713 15.6926 22.0007 16.3427 22.0009 16.9993C22.001 17.6559 21.8717 18.3061 21.6206 18.9128C21.3694 19.5195 21.0012 20.0707 20.537 20.5351C20.0728 20.9995 19.5216 21.3679 18.915 21.6192C18.3085 21.8706 17.6583 22.0001 17.0017 22.0002C15.6756 22.0002 14.4038 21.4734 13.4662 20.5357C12.5285 19.598 12.0017 18.3262 12.0017 17.0002C12.0017 15.6741 12.5285 14.4023 13.4662 13.4646C14.4038 12.5269 15.6756 12.0002 17.0017 12.0002M25.7517 6.16683C25.1992 6.16683 24.6693 6.38632 24.2786 6.77702C23.8879 7.16772 23.6684 7.69763 23.6684 8.25016C23.6684 8.8027 23.8879 9.3326 24.2786 9.7233C24.6693 10.114 25.1992 10.3335 25.7517 10.3335C26.3042 10.3335 26.8341 10.114 27.2248 9.7233C27.6155 9.3326 27.835 8.8027 27.835 8.25016C27.835 7.69763 27.6155 7.16772 27.2248 6.77702C26.8341 6.38632 26.3042 6.16683 25.7517 6.16683Z" fill="white"/>
</svg>
